<svg id="Layer_1" data-name="Layer 1" xmlns="http://www.w3.org/2000/svg" width="210mm" height="105.516mm" viewBox="0 0 595.276 299.101">
  <defs>
    <style>
      .cls-1 {
        fill: #dcdcdc;
      }

      .cls-2 {
        fill: #080808;
      }

      .cls-3 {
        fill: #dfeac0;
      }

      .cls-4 {
        fill: #fcce9a;
      }

      .cls-5, .cls-7, .cls-9 {
        fill: none;
        stroke-miterlimit: 10;
      }

      .cls-5 {
        stroke: #06c;
      }

      .cls-6 {
        fill: #06c;
      }

      .cls-7 {
        stroke: #3f9c35;
      }

      .cls-8 {
        fill: #3f9c35;
      }

      .cls-9 {
        stroke: #faaa4f;
      }

      .cls-10 {
        fill: #faaa4f;
      }

      .cls-11 {
        fill: #a1c2e7;
      }

      .cls-12 {
        fill: #ffea6c;
      }
    </style>
  </defs>
  <polygon class="cls-1" points="504.506 56.122 69.298 56.122 69.298 17.748 504.506 17.748 525.978 36.935 504.506 56.122"/>
  <g>
    <path class="cls-2" d="M81.278,34.463H82.9v.82a1.77,1.77,0,0,1,1.529-.9,1.527,1.527,0,0,1,1.449.959,1.949,1.949,0,0,1,1.689-.959,1.653,1.653,0,0,1,1.62,1.809V39.62h-1.62V36.512a.772.772,0,0,0-.769-.86.885.885,0,0,0-.75.4V39.62H84.426V36.512a.772.772,0,0,0-.769-.86.927.927,0,0,0-.76.4V39.62H81.278Z"/>
    <path class="cls-2" d="M90.168,38.141c0-.95.74-1.5,2.009-1.5a3.353,3.353,0,0,1,1.2.241v-.42c0-.5-.33-.75-1.019-.75a3.835,3.835,0,0,0-1.449.36l-.56-1.129a5.707,5.707,0,0,1,2.369-.56c1.429,0,2.259.71,2.259,1.939v3.3h-1.6v-.45a2.051,2.051,0,0,1-1.429.53A1.6,1.6,0,0,1,90.168,38.141Zm2.279.49a1.756,1.756,0,0,0,.929-.261v-.659a3.856,3.856,0,0,0-.889-.11c-.53,0-.83.18-.83.51S91.947,38.631,92.447,38.631Z"/>
    <path class="cls-2" d="M96.1,32.764a.915.915,0,0,1,1.829,0,.915.915,0,0,1-1.829,0Zm1.719,6.856H96.2V34.463h1.619Z"/>
    <path class="cls-2" d="M99.078,34.463H100.7v.84a1.9,1.9,0,0,1,1.629-.92,1.667,1.667,0,0,1,1.709,1.759V39.62h-1.619V36.612a.859.859,0,0,0-.859-.96,1.043,1.043,0,0,0-.86.43V39.62H99.078Z"/>
    <path class="cls-2" d="M110.417,39.65a1.808,1.808,0,0,1-1.41-.66v.63h-1.6V32.474l1.619-.25v2.9a1.952,1.952,0,0,1,1.509-.689,2.457,2.457,0,0,1,2.279,2.619A2.486,2.486,0,0,1,110.417,39.65Zm-1.39-3.458v1.719a1.328,1.328,0,0,0,.97.41,1.275,1.275,0,0,0,0-2.549A1.25,1.25,0,0,0,109.027,36.192Z"/>
    <path class="cls-2" d="M113.848,34.463h1.619v1.169c.33-.859.79-1.269,1.4-1.269a1.106,1.106,0,0,1,.54.13v1.389a1.775,1.775,0,0,0-.76-.16,1.425,1.425,0,0,0-1.179.64V39.62h-1.619Z"/>
    <path class="cls-2" d="M117.928,38.141c0-.95.739-1.5,2.009-1.5a3.357,3.357,0,0,1,1.2.241v-.42c0-.5-.33-.75-1.019-.75a3.844,3.844,0,0,0-1.45.36l-.559-1.129a5.707,5.707,0,0,1,2.369-.56c1.429,0,2.258.71,2.258,1.939v3.3h-1.6v-.45a2.051,2.051,0,0,1-1.429.53A1.6,1.6,0,0,1,117.928,38.141Zm2.279.49a1.762,1.762,0,0,0,.929-.261v-.659a3.87,3.87,0,0,0-.889-.11c-.53,0-.83.18-.83.51S119.707,38.631,120.207,38.631Z"/>
    <path class="cls-2" d="M123.958,34.463h1.619v.84a1.9,1.9,0,0,1,1.629-.92,1.667,1.667,0,0,1,1.709,1.759V39.62H127.3V36.612a.859.859,0,0,0-.859-.96,1.042,1.042,0,0,0-.86.43V39.62h-1.619Z"/>
    <path class="cls-2" d="M133.715,37.811l.96.95a2.715,2.715,0,0,1-2.1.959,2.669,2.669,0,0,1,0-5.337,2.793,2.793,0,0,1,2.149.949l-.99.99a1.347,1.347,0,0,0-1.1-.56,1.288,1.288,0,0,0,.04,2.559A1.245,1.245,0,0,0,133.715,37.811Z"/>
    <path class="cls-2" d="M135.528,32.474l1.618-.25V35.3a1.9,1.9,0,0,1,1.63-.92,1.667,1.667,0,0,1,1.709,1.759V39.62h-1.619V36.612a.859.859,0,0,0-.86-.96,1.043,1.043,0,0,0-.86.43V39.62h-1.618Z"/>
  </g>
  <polygon class="cls-3" points="247.396 211.767 102.796 211.767 102.796 173.392 247.396 173.392 268.868 192.58 247.396 211.767"/>
  <g>
    <path class="cls-2" d="M112.424,190.108v-.68c0-1.229.729-1.9,2.059-1.9a3.685,3.685,0,0,1,.859.1v1.329a3.329,3.329,0,0,0-.619-.06c-.46,0-.68.18-.68.56v.65h1.3v1.249h-1.3v3.908h-1.619v-3.908h-1.07v-1.249Z"/>
    <path class="cls-2" d="M118.653,195.365a2.666,2.666,0,0,1-2.718-2.668,2.587,2.587,0,0,1,2.6-2.679,2.534,2.534,0,0,1,2.539,2.738v.35h-3.549a1.238,1.238,0,0,0,1.21.97,1.275,1.275,0,0,0,1.019-.43l1.07.89A3.009,3.009,0,0,1,118.653,195.365Zm-1.13-3.178h2.049a1.073,1.073,0,0,0-1.049-.91A1.024,1.024,0,0,0,117.523,192.187Z"/>
    <path class="cls-2" d="M121.844,193.786c0-.95.74-1.5,2.009-1.5a3.362,3.362,0,0,1,1.2.241v-.42c0-.5-.33-.75-1.02-.75a3.844,3.844,0,0,0-1.449.36l-.56-1.129a5.707,5.707,0,0,1,2.369-.56c1.429,0,2.259.71,2.259,1.939v3.3h-1.6v-.45a2.054,2.054,0,0,1-1.429.53A1.606,1.606,0,0,1,121.844,193.786Zm2.279.49a1.762,1.762,0,0,0,.93-.261v-.659a3.871,3.871,0,0,0-.89-.11c-.53,0-.83.18-.83.51S123.624,194.276,124.123,194.276Z"/>
    <path class="cls-2" d="M128.4,191.357h-1v-1.249h1v-1.429l1.619-.33v1.759H131.4v1.249h-1.379v2c0,.46.18.62.68.62a2.165,2.165,0,0,0,.659-.11v1.309a4.5,4.5,0,0,1-1.109.16c-1.219,0-1.849-.56-1.849-1.659Z"/>
    <path class="cls-2" d="M133.883,193.116a.859.859,0,0,0,.86.96,1.042,1.042,0,0,0,.859-.43v-3.538h1.619v5.157H135.6v-.839a1.9,1.9,0,0,1-1.629.919,1.667,1.667,0,0,1-1.709-1.759v-3.478h1.619Z"/>
    <path class="cls-2" d="M138.484,190.108H140.1v1.169c.33-.859.79-1.269,1.4-1.269a1.106,1.106,0,0,1,.54.13v1.389a1.773,1.773,0,0,0-.759-.16,1.426,1.426,0,0,0-1.18.64v3.258h-1.619Z"/>
    <path class="cls-2" d="M145.243,195.365a2.667,2.667,0,0,1-2.719-2.668,2.588,2.588,0,0,1,2.6-2.679,2.534,2.534,0,0,1,2.539,2.738v.35h-3.549a1.238,1.238,0,0,0,1.21.97,1.276,1.276,0,0,0,1.019-.43l1.07.89A3.009,3.009,0,0,1,145.243,195.365Zm-1.13-3.178h2.049a1.073,1.073,0,0,0-1.049-.91A1.024,1.024,0,0,0,144.113,192.187Z"/>
    <path class="cls-2" d="M153.833,195.3a1.808,1.808,0,0,1-1.41-.66v.63h-1.6v-7.146l1.619-.25v2.9a1.952,1.952,0,0,1,1.509-.689,2.457,2.457,0,0,1,2.279,2.619A2.486,2.486,0,0,1,153.833,195.3Zm-1.39-3.458v1.719a1.328,1.328,0,0,0,.97.41,1.275,1.275,0,0,0,0-2.549A1.25,1.25,0,0,0,152.443,191.837Z"/>
    <path class="cls-2" d="M157.264,190.108h1.619v1.169c.33-.859.789-1.269,1.4-1.269a1.106,1.106,0,0,1,.54.13v1.389a1.775,1.775,0,0,0-.76-.16,1.425,1.425,0,0,0-1.179.64v3.258h-1.619Z"/>
    <path class="cls-2" d="M161.344,193.786c0-.95.739-1.5,2.009-1.5a3.357,3.357,0,0,1,1.2.241v-.42c0-.5-.33-.75-1.019-.75a3.844,3.844,0,0,0-1.45.36l-.559-1.129a5.707,5.707,0,0,1,2.369-.56c1.429,0,2.258.71,2.258,1.939v3.3h-1.6v-.45a2.053,2.053,0,0,1-1.429.53A1.605,1.605,0,0,1,161.344,193.786Zm2.279.49a1.762,1.762,0,0,0,.929-.261v-.659a3.87,3.87,0,0,0-.889-.11c-.53,0-.83.18-.83.51S163.123,194.276,163.623,194.276Z"/>
    <path class="cls-2" d="M167.374,190.108h1.619v.84a1.9,1.9,0,0,1,1.629-.92,1.667,1.667,0,0,1,1.709,1.759v3.478h-1.619v-3.008a.859.859,0,0,0-.859-.96,1.042,1.042,0,0,0-.86.43v3.538h-1.619Z"/>
    <path class="cls-2" d="M177.131,193.456l.96.95a2.715,2.715,0,0,1-2.1.959,2.669,2.669,0,0,1,0-5.337,2.793,2.793,0,0,1,2.149.949l-.99.99a1.347,1.347,0,0,0-1.1-.56,1.288,1.288,0,0,0,.04,2.559A1.245,1.245,0,0,0,177.131,193.456Z"/>
    <path class="cls-2" d="M178.944,188.119l1.618-.25v3.079a1.9,1.9,0,0,1,1.63-.92,1.667,1.667,0,0,1,1.709,1.759v3.478h-1.619v-3.008a.859.859,0,0,0-.86-.96,1.043,1.043,0,0,0-.86.43v3.538h-1.618Z"/>
  </g>
  <polygon class="cls-4" points="387.137 284.328 293.567 284.328 293.567 245.953 387.137 245.953 408.608 265.14 387.137 284.328"/>
  <g>
    <path class="cls-2" d="M303.435,262.668h1.618v1.17c.33-.86.79-1.27,1.4-1.27a1.109,1.109,0,0,1,.54.131v1.389a1.778,1.778,0,0,0-.76-.16,1.428,1.428,0,0,0-1.18.639v3.259h-1.618Z"/>
    <path class="cls-2" d="M310.193,267.926a2.667,2.667,0,0,1-2.718-2.669,2.588,2.588,0,0,1,2.6-2.679,2.535,2.535,0,0,1,2.538,2.739v.35h-3.548a1.236,1.236,0,0,0,1.209.969,1.273,1.273,0,0,0,1.019-.43l1.07.89A3.007,3.007,0,0,1,310.193,267.926Zm-1.129-3.179h2.049a1.074,1.074,0,0,0-1.05-.909A1.023,1.023,0,0,0,309.064,264.747Z"/>
    <path class="cls-2" d="M315.244,267.826h-1.619V260.68l1.619-.25Z"/>
    <path class="cls-2" d="M318.993,267.926a2.667,2.667,0,0,1-2.718-2.669,2.588,2.588,0,0,1,2.6-2.679,2.535,2.535,0,0,1,2.538,2.739v.35h-3.548a1.236,1.236,0,0,0,1.209.969,1.275,1.275,0,0,0,1.019-.43l1.07.89A3.007,3.007,0,0,1,318.993,267.926Zm-1.129-3.179h2.049a1.074,1.074,0,0,0-1.05-.909A1.023,1.023,0,0,0,317.864,264.747Z"/>
    <path class="cls-2" d="M322.184,266.347c0-.95.74-1.5,2.01-1.5a3.358,3.358,0,0,1,1.2.24v-.42c0-.5-.33-.749-1.019-.749a3.844,3.844,0,0,0-1.45.36l-.559-1.13a5.7,5.7,0,0,1,2.368-.56c1.43,0,2.259.71,2.259,1.939v3.3h-1.6v-.45a2.055,2.055,0,0,1-1.43.53A1.606,1.606,0,0,1,322.184,266.347Zm2.279.489a1.762,1.762,0,0,0,.93-.26v-.66a3.926,3.926,0,0,0-.89-.109c-.53,0-.83.18-.83.509S323.963,266.836,324.463,266.836Z"/>
    <path class="cls-2" d="M328.5,266.217a3.349,3.349,0,0,0,1.66.519c.46,0,.739-.16.739-.42,0-.2-.15-.309-.48-.369l-.989-.181c-1-.189-1.519-.7-1.519-1.5,0-1.059.809-1.689,2.159-1.689a4.147,4.147,0,0,1,2.1.59l-.74,1.03a2.913,2.913,0,0,0-1.478-.44c-.39,0-.621.13-.621.36,0,.21.13.3.531.369l.969.18c1.019.19,1.559.71,1.549,1.49.01,1.009-.95,1.769-2.218,1.769a4.225,4.225,0,0,1-2.37-.63Z"/>
    <path class="cls-2" d="M335.863,267.926a2.667,2.667,0,0,1-2.719-2.669,2.588,2.588,0,0,1,2.6-2.679,2.535,2.535,0,0,1,2.539,2.739v.35h-3.549a1.238,1.238,0,0,0,1.21.969,1.275,1.275,0,0,0,1.019-.43l1.07.89A3.01,3.01,0,0,1,335.863,267.926Zm-1.13-3.179h2.049a1.073,1.073,0,0,0-1.049-.909A1.024,1.024,0,0,0,334.733,264.747Z"/>
    <path class="cls-2" d="M341.324,266.726l2.959-2.928a1.31,1.31,0,0,0,.469-.929c0-.451-.44-.791-1.03-.791a2.412,2.412,0,0,0-1.768.86l-.86-1.049a3.839,3.839,0,0,1,2.679-1.149c1.489,0,2.478.809,2.478,2.028a2.446,2.446,0,0,1-.91,1.81l-2.018,1.948,3.028-.01v1.31h-5.027Z"/>
    <path class="cls-2" d="M349.063,266.986a.906.906,0,1,1-.9-.95A.933.933,0,0,1,349.063,266.986Z"/>
    <path class="cls-2" d="M349.814,264.317c0-2.158,1.209-3.6,3.028-3.6s3.019,1.439,3.019,3.6-1.2,3.609-3.019,3.609S349.814,266.5,349.814,264.317Zm4.518,0c0-1.379-.571-2.239-1.49-2.239s-1.5.87-1.5,2.239c0,1.39.57,2.249,1.5,2.249S354.332,265.717,354.332,264.317Z"/>
  </g>
  <g>
    <line class="cls-5" x1="69.298" y1="56.065" x2="69.298" y2="90.131"/>
    <polygon class="cls-6" points="65.559 89.037 69.298 95.513 73.037 89.037 65.559 89.037"/>
  </g>
  <g>
    <line class="cls-7" x1="268.868" y1="139.327" x2="268.868" y2="192.58"/>
    <polygon class="cls-8" points="265.128 140.421 268.867 133.945 272.607 140.421 265.128 140.421"/>
  </g>
  <g>
    <line class="cls-7" x1="102.796" y1="168.011" x2="102.796" y2="134.002"/>
    <polygon class="cls-8" points="106.536 166.916 102.797 173.392 99.057 166.916 106.536 166.916"/>
  </g>
  <g>
    <line class="cls-9" x1="293.567" y1="240.572" x2="293.567" y2="134.256"/>
    <polygon class="cls-10" points="297.306 239.478 293.567 245.954 289.827 239.478 297.306 239.478"/>
  </g>
  <g>
    <line class="cls-9" x1="403.608" y1="260.426" x2="403.608" y2="139.638"/>
    <polygon class="cls-10" points="407.347 140.732 403.608 134.256 399.869 140.732 407.347 140.732"/>
  </g>
  <g>
    <line class="cls-9" x1="409.375" y1="265.14" x2="409.375" y2="61.504"/>
    <polygon class="cls-10" points="413.115 62.598 409.376 56.122 405.636 62.598 413.115 62.598"/>
  </g>
  <polygon class="cls-11" points="500.753 133.945 69.298 133.945 69.298 95.57 500.753 95.57 525.978 114.757 500.753 133.945"/>
  <g>
    <path class="cls-2" d="M94.888,116.858a1.949,1.949,0,0,1-1.519.7,2.457,2.457,0,0,1-2.279-2.618,2.487,2.487,0,0,1,2.4-2.6,1.806,1.806,0,0,1,1.38.62v-2.579l1.619-.25v7.4h-1.6Zm-.98-.64a1.254,1.254,0,0,0,.96-.41v-1.739a1.314,1.314,0,0,0-.96-.4,1.275,1.275,0,0,0,0,2.549Z"/>
    <path class="cls-2" d="M100.238,117.627a2.666,2.666,0,0,1-2.718-2.668,2.587,2.587,0,0,1,2.6-2.679,2.535,2.535,0,0,1,2.539,2.738v.351H99.108a1.238,1.238,0,0,0,1.21.969,1.275,1.275,0,0,0,1.019-.43l1.07.89A3.009,3.009,0,0,1,100.238,117.627Zm-1.13-3.178h2.049a1.073,1.073,0,0,0-1.049-.91A1.024,1.024,0,0,0,99.108,114.449Z"/>
    <path class="cls-2" d="M102.959,112.37h1.76l1.169,3.238,1.179-3.238h1.669l-2.109,5.157h-1.579Z"/>
    <path class="cls-2" d="M111.778,117.627a2.666,2.666,0,0,1-2.718-2.668,2.587,2.587,0,0,1,2.6-2.679,2.535,2.535,0,0,1,2.539,2.738v.351h-3.549a1.238,1.238,0,0,0,1.21.969,1.275,1.275,0,0,0,1.019-.43l1.07.89A3.009,3.009,0,0,1,111.778,117.627Zm-1.13-3.178H112.7a1.073,1.073,0,0,0-1.049-.91A1.024,1.024,0,0,0,110.648,114.449Z"/>
    <path class="cls-2" d="M116.828,117.527h-1.619v-7.146l1.619-.25Z"/>
    <path class="cls-2" d="M120.548,112.29a2.669,2.669,0,1,1-2.689,2.669A2.625,2.625,0,0,1,120.548,112.29Zm1.119,2.669a1.13,1.13,0,1,0-2.229,0,1.128,1.128,0,1,0,2.229,0Z"/>
    <path class="cls-2" d="M124.279,112.37h1.6v.72a1.9,1.9,0,0,1,1.529-.75,2.458,2.458,0,0,1,2.279,2.619,2.486,2.486,0,0,1-2.4,2.6,1.8,1.8,0,0,1-1.39-.6v2.719h-1.619ZM125.9,114.1v1.719a1.328,1.328,0,0,0,.97.41,1.275,1.275,0,0,0,0-2.548A1.249,1.249,0,0,0,125.9,114.1Z"/>
    <path class="cls-2" d="M130.719,112.37h1.619v.82a1.77,1.77,0,0,1,1.529-.9,1.527,1.527,0,0,1,1.449.959,1.949,1.949,0,0,1,1.689-.959,1.653,1.653,0,0,1,1.62,1.809v3.428h-1.62v-3.108a.772.772,0,0,0-.769-.86.887.887,0,0,0-.75.4v3.568h-1.619v-3.108a.772.772,0,0,0-.769-.86.927.927,0,0,0-.76.4v3.568h-1.619Z"/>
    <path class="cls-2" d="M142.337,117.627a2.666,2.666,0,0,1-2.718-2.668,2.587,2.587,0,0,1,2.6-2.679,2.534,2.534,0,0,1,2.538,2.738v.351h-3.548a1.238,1.238,0,0,0,1.209.969,1.277,1.277,0,0,0,1.02-.43l1.069.89A3.006,3.006,0,0,1,142.337,117.627Zm-1.129-3.178h2.049a1.073,1.073,0,0,0-1.049-.91A1.024,1.024,0,0,0,141.208,114.449Z"/>
    <path class="cls-2" d="M145.769,112.37h1.619v.84a1.9,1.9,0,0,1,1.629-.92,1.667,1.667,0,0,1,1.709,1.759v3.478h-1.619v-3.008a.859.859,0,0,0-.859-.96,1.042,1.042,0,0,0-.86.43v3.538h-1.619Z"/>
    <path class="cls-2" d="M152.479,113.619h-1V112.37h1v-1.429l1.619-.33v1.759h1.379v1.249H154.1v2c0,.46.18.62.679.62a2.17,2.17,0,0,0,.66-.11v1.309a4.5,4.5,0,0,1-1.109.16c-1.22,0-1.849-.56-1.849-1.659Z"/>
    <path class="cls-2" d="M161.538,117.557a1.809,1.809,0,0,1-1.41-.66v.63h-1.6v-7.146l1.619-.25v2.9a1.949,1.949,0,0,1,1.509-.69,2.458,2.458,0,0,1,2.279,2.619A2.486,2.486,0,0,1,161.538,117.557Zm-1.39-3.458v1.719a1.328,1.328,0,0,0,.97.41,1.275,1.275,0,0,0,0-2.548A1.249,1.249,0,0,0,160.148,114.1Z"/>
    <path class="cls-2" d="M164.969,112.37h1.619v1.169c.33-.859.789-1.269,1.4-1.269a1.106,1.106,0,0,1,.54.13v1.389a1.773,1.773,0,0,0-.759-.16,1.426,1.426,0,0,0-1.18.64v3.258h-1.619Z"/>
    <path class="cls-2" d="M169.049,116.048c0-.949.74-1.5,2.009-1.5a3.354,3.354,0,0,1,1.2.24v-.42c0-.5-.33-.75-1.019-.75a3.835,3.835,0,0,0-1.449.36l-.56-1.129a5.707,5.707,0,0,1,2.369-.56c1.429,0,2.258.71,2.258,1.939v3.3h-1.6v-.449a2.056,2.056,0,0,1-1.429.529A1.6,1.6,0,0,1,169.049,116.048Zm2.279.49a1.758,1.758,0,0,0,.929-.26v-.66a3.863,3.863,0,0,0-.889-.11c-.53,0-.83.18-.83.51S170.828,116.538,171.328,116.538Z"/>
    <path class="cls-2" d="M175.079,112.37H176.7v.84a1.9,1.9,0,0,1,1.629-.92,1.667,1.667,0,0,1,1.709,1.759v3.478h-1.619v-3.008a.859.859,0,0,0-.859-.96,1.043,1.043,0,0,0-.86.43v3.538h-1.619Z"/>
    <path class="cls-2" d="M184.836,115.718l.96.95a2.715,2.715,0,0,1-2.1.959,2.669,2.669,0,0,1,0-5.337,2.791,2.791,0,0,1,2.149.95l-.99.989a1.347,1.347,0,0,0-1.1-.56,1.288,1.288,0,0,0,.04,2.559A1.245,1.245,0,0,0,184.836,115.718Z"/>
    <path class="cls-2" d="M186.649,110.381l1.619-.25v3.079a1.9,1.9,0,0,1,1.629-.92,1.667,1.667,0,0,1,1.709,1.759v3.478h-1.619v-3.008a.859.859,0,0,0-.86-.96,1.041,1.041,0,0,0-.859.43v3.538h-1.619Z"/>
  </g>
  <g>
    <path class="cls-12" d="M409.387,45.865a2.516,2.516,0,0,1,2.632-2.65c2.576-.022,5.153,0,7.729-.01a1.206,1.206,0,0,1,.921.366c3.668,3.68,11.349,11.344,15.011,15.03a2.336,2.336,0,0,1,.035,3.46q-3.7,3.771-7.468,7.471a2.361,2.361,0,0,1-3.509-.052c-3.651-3.637-11.287-11.286-14.937-14.923a1.328,1.328,0,0,1-.425-1.027c.015-1.267,0-2.533.006-3.8C409.382,48.442,409.364,47.153,409.387,45.865Zm4.86,1.037a1.27,1.27,0,0,0-1.205-1.184,1.175,1.175,0,1,0,.058,2.349A1.241,1.241,0,0,0,414.247,46.9Z"/>
    <g>
      <path class="cls-2" d="M415.493,51.768l3.465.057a1.566,1.566,0,0,0,1.194-.333.953.953,0,0,0-.095-1.368A2.106,2.106,0,0,0,418.5,49.5l.109-.8a2.963,2.963,0,0,1,2.044.905,1.7,1.7,0,0,1,.14,2.5,2.231,2.231,0,0,1-1.761.494l-2.685-.062,1.923,2.052-.575.533-2.689-2.9Z"/>
      <path class="cls-2" d="M419.431,56.2a.585.585,0,1,1-.795-.857.585.585,0,1,1,.795.857Z"/>
      <path class="cls-2" d="M421.67,55.1c1.305-1.208,2.863-1.332,3.827-.291s.721,2.585-.583,3.793-2.863,1.343-3.833.3S420.354,56.317,421.67,55.1Zm2.625,2.834c.987-.913,1.22-1.914.608-2.575s-1.635-.5-2.615.408-1.225,1.919-.613,2.581S423.3,58.857,424.3,57.932Z"/>
      <path class="cls-2" d="M424.423,61.6a.585.585,0,1,1-.794-.857.585.585,0,1,1,.794.857Z"/>
      <path class="cls-2" d="M426.663,60.489c1.3-1.208,2.862-1.331,3.826-.29s.722,2.585-.582,3.793-2.864,1.343-3.833.3S425.346,61.708,426.663,60.489Zm2.626,2.836c.985-.913,1.219-1.914.606-2.576s-1.634-.5-2.613.408-1.227,1.919-.615,2.58S428.291,64.249,429.289,63.325Z"/>
    </g>
  </g>
</svg>
