<svg id="Layer_1" data-name="Layer 1" xmlns="http://www.w3.org/2000/svg" width="210mm" height="136.338mm" viewBox="0 0 595.276 386.471">
  <defs>
    <style>
      .cls-1 {
        fill: #dcdcdc;
      }

      .cls-2 {
        fill: #080808;
      }

      .cls-3 {
        fill: #dfeac0;
      }

      .cls-10, .cls-13, .cls-4, .cls-6, .cls-8, .cls-9 {
        fill: none;
      }

      .cls-4, .cls-9 {
        stroke: #4c4c4c;
      }

      .cls-10, .cls-13, .cls-16, .cls-18, .cls-19, .cls-4 {
        stroke-miterlimit: 10;
      }

      .cls-5 {
        fill: #4c4c4c;
      }

      .cls-6, .cls-8 {
        stroke: #5e40be;
      }

      .cls-6, .cls-8, .cls-9 {
        stroke-linecap: round;
        stroke-linejoin: round;
      }

      .cls-7 {
        fill: #5e40be;
      }

      .cls-8, .cls-9 {
        stroke-dasharray: 3 0 0 3 0 0;
      }

      .cls-10, .cls-19 {
        stroke: #3f9c35;
      }

      .cls-11 {
        fill: #3f9c35;
      }

      .cls-12 {
        fill: #fcce9a;
      }

      .cls-13, .cls-18 {
        stroke: #faaa4f;
      }

      .cls-14 {
        fill: #faaa4f;
      }

      .cls-15 {
        fill: #a1c2e7;
      }

      .cls-16, .cls-18, .cls-19, .cls-21 {
        fill: #fff;
      }

      .cls-16 {
        stroke: #fcce9a;
      }

      .cls-17 {
        fill: #baade3;
      }

      .cls-20 {
        fill: #ffea6c;
      }
    </style>
  </defs>
  <polygon class="cls-1" points="504.506 195.666 69.298 195.666 69.298 157.291 504.506 157.291 525.978 176.478 504.506 195.666"/>
  <g>
    <path class="cls-2" d="M81.278,174.007H82.9v.819a1.769,1.769,0,0,1,1.529-.9,1.528,1.528,0,0,1,1.449.958,1.948,1.948,0,0,1,1.689-.958,1.653,1.653,0,0,1,1.62,1.808v3.429h-1.62v-3.109a.771.771,0,0,0-.769-.859.886.886,0,0,0-.75.4v3.569H84.426v-3.109a.771.771,0,0,0-.769-.859.928.928,0,0,0-.76.4v3.569H81.278Z"/>
    <path class="cls-2" d="M90.168,177.684c0-.949.74-1.5,2.009-1.5a3.353,3.353,0,0,1,1.2.241v-.42c0-.5-.33-.75-1.019-.75a3.835,3.835,0,0,0-1.449.36l-.56-1.13a5.705,5.705,0,0,1,2.369-.559c1.429,0,2.259.709,2.259,1.938v3.3h-1.6v-.45a2.051,2.051,0,0,1-1.429.53A1.6,1.6,0,0,1,90.168,177.684Zm2.279.491a1.756,1.756,0,0,0,.929-.261v-.659a3.8,3.8,0,0,0-.889-.111c-.53,0-.83.181-.83.51S91.947,178.175,92.447,178.175Z"/>
    <path class="cls-2" d="M96.1,172.307a.915.915,0,0,1,1.829,0,.915.915,0,0,1-1.829,0Zm1.719,6.857H96.2v-5.157h1.619Z"/>
    <path class="cls-2" d="M99.078,174.007H100.7v.839a1.9,1.9,0,0,1,1.629-.919,1.666,1.666,0,0,1,1.709,1.758v3.479h-1.619v-3.009a.859.859,0,0,0-.859-.959,1.043,1.043,0,0,0-.86.43v3.538H99.078Z"/>
    <path class="cls-2" d="M110.417,179.193a1.807,1.807,0,0,1-1.41-.659v.63h-1.6v-7.147l1.619-.25v2.9a1.949,1.949,0,0,1,1.509-.69,2.458,2.458,0,0,1,2.279,2.619A2.486,2.486,0,0,1,110.417,179.193Zm-1.39-3.458v1.72a1.328,1.328,0,0,0,.97.409,1.275,1.275,0,0,0,0-2.548A1.252,1.252,0,0,0,109.027,175.735Z"/>
    <path class="cls-2" d="M113.848,174.007h1.619v1.169c.33-.86.79-1.27,1.4-1.27a1.106,1.106,0,0,1,.54.131v1.389a1.775,1.775,0,0,0-.76-.161,1.425,1.425,0,0,0-1.179.64v3.259h-1.619Z"/>
    <path class="cls-2" d="M117.928,177.684c0-.949.739-1.5,2.009-1.5a3.357,3.357,0,0,1,1.2.241v-.42c0-.5-.33-.75-1.019-.75a3.844,3.844,0,0,0-1.45.36l-.559-1.13a5.705,5.705,0,0,1,2.369-.559c1.429,0,2.258.709,2.258,1.938v3.3h-1.6v-.45a2.051,2.051,0,0,1-1.429.53A1.6,1.6,0,0,1,117.928,177.684Zm2.279.491a1.762,1.762,0,0,0,.929-.261v-.659a3.817,3.817,0,0,0-.889-.111c-.53,0-.83.181-.83.51S119.707,178.175,120.207,178.175Z"/>
    <path class="cls-2" d="M123.958,174.007h1.619v.839a1.9,1.9,0,0,1,1.629-.919,1.666,1.666,0,0,1,1.709,1.758v3.479H127.3v-3.009a.859.859,0,0,0-.859-.959,1.042,1.042,0,0,0-.86.43v3.538h-1.619Z"/>
    <path class="cls-2" d="M133.715,177.354l.96.95a2.712,2.712,0,0,1-2.1.959,2.668,2.668,0,0,1,0-5.336,2.79,2.79,0,0,1,2.149.949l-.99.989a1.347,1.347,0,0,0-1.1-.56,1.288,1.288,0,0,0,.04,2.559A1.245,1.245,0,0,0,133.715,177.354Z"/>
    <path class="cls-2" d="M135.528,172.017l1.618-.25v3.079a1.9,1.9,0,0,1,1.63-.919,1.666,1.666,0,0,1,1.709,1.758v3.479h-1.619v-3.009a.859.859,0,0,0-.86-.959,1.043,1.043,0,0,0-.86.43v3.538h-1.618Z"/>
  </g>
  <polygon class="cls-3" points="217.396 100.843 102.796 100.843 102.796 62.468 217.396 62.468 238.868 81.656 217.396 100.843"/>
  <g>
    <path class="cls-2" d="M111.877,79.184V78.5c0-1.229.729-1.9,2.059-1.9a3.685,3.685,0,0,1,.859.1v1.329a3.329,3.329,0,0,0-.619-.06c-.46,0-.68.181-.68.56v.65h1.3v1.249h-1.3v3.908h-1.619V80.433h-1.069V79.184Z"/>
    <path class="cls-2" d="M118.106,84.441a2.666,2.666,0,0,1-2.718-2.668,2.587,2.587,0,0,1,2.6-2.679,2.534,2.534,0,0,1,2.539,2.738v.35h-3.548a1.236,1.236,0,0,0,1.209.97,1.277,1.277,0,0,0,1.02-.43l1.069.89A3.008,3.008,0,0,1,118.106,84.441Zm-1.129-3.178h2.048a1.073,1.073,0,0,0-1.049-.91A1.023,1.023,0,0,0,116.977,81.263Z"/>
    <path class="cls-2" d="M121.3,82.862c0-.95.74-1.5,2.009-1.5a3.359,3.359,0,0,1,1.2.24v-.42c0-.5-.33-.75-1.02-.75a3.844,3.844,0,0,0-1.449.36l-.559-1.129a5.7,5.7,0,0,1,2.368-.56c1.429,0,2.259.71,2.259,1.939v3.3h-1.6v-.45a2.054,2.054,0,0,1-1.429.53A1.606,1.606,0,0,1,121.3,82.862Zm2.279.49a1.771,1.771,0,0,0,.93-.26v-.66a3.871,3.871,0,0,0-.89-.11c-.53,0-.829.18-.829.51S123.077,83.352,123.576,83.352Z"/>
    <path class="cls-2" d="M127.857,80.433h-1V79.184h1V77.755l1.619-.33v1.759h1.379v1.249h-1.379v2c0,.46.18.62.68.62a2.161,2.161,0,0,0,.659-.11v1.309a4.493,4.493,0,0,1-1.109.16c-1.219,0-1.849-.56-1.849-1.659Z"/>
    <path class="cls-2" d="M133.336,82.192a.859.859,0,0,0,.86.96,1.042,1.042,0,0,0,.859-.43V79.184h1.619v5.157h-1.619V83.5a1.9,1.9,0,0,1-1.629.919,1.667,1.667,0,0,1-1.709-1.759V79.184h1.619Z"/>
    <path class="cls-2" d="M137.938,79.184h1.618v1.169c.33-.859.79-1.269,1.4-1.269a1.1,1.1,0,0,1,.539.13V80.6a1.77,1.77,0,0,0-.759-.16,1.426,1.426,0,0,0-1.18.64v3.258h-1.618Z"/>
    <path class="cls-2" d="M144.7,84.441a2.666,2.666,0,0,1-2.718-2.668,2.587,2.587,0,0,1,2.6-2.679,2.534,2.534,0,0,1,2.539,2.738v.35h-3.549a1.238,1.238,0,0,0,1.21.97,1.275,1.275,0,0,0,1.019-.43l1.07.89A3.009,3.009,0,0,1,144.7,84.441Zm-1.13-3.178h2.049a1.073,1.073,0,0,0-1.049-.91A1.024,1.024,0,0,0,143.566,81.263Z"/>
    <path class="cls-2" d="M153.286,84.371a1.809,1.809,0,0,1-1.41-.66v.63h-1.6V77.195l1.619-.25v2.9a1.949,1.949,0,0,1,1.509-.69,2.457,2.457,0,0,1,2.279,2.619A2.486,2.486,0,0,1,153.286,84.371Zm-1.39-3.458v1.719a1.328,1.328,0,0,0,.97.41,1.275,1.275,0,0,0,0-2.549A1.25,1.25,0,0,0,151.9,80.913Z"/>
    <path class="cls-2" d="M156.717,79.184h1.619v1.169c.33-.859.789-1.269,1.4-1.269a1.106,1.106,0,0,1,.54.13V80.6a1.773,1.773,0,0,0-.759-.16,1.426,1.426,0,0,0-1.18.64v3.258h-1.619Z"/>
    <path class="cls-2" d="M160.8,82.862c0-.95.74-1.5,2.009-1.5a3.354,3.354,0,0,1,1.2.24v-.42c0-.5-.33-.75-1.019-.75a3.835,3.835,0,0,0-1.449.36l-.56-1.129a5.707,5.707,0,0,1,2.369-.56c1.429,0,2.258.71,2.258,1.939v3.3h-1.6v-.45a2.053,2.053,0,0,1-1.429.53A1.605,1.605,0,0,1,160.8,82.862Zm2.279.49a1.765,1.765,0,0,0,.929-.26v-.66a3.856,3.856,0,0,0-.889-.11c-.53,0-.83.18-.83.51S162.576,83.352,163.076,83.352Z"/>
    <path class="cls-2" d="M166.827,79.184h1.619v.84a1.9,1.9,0,0,1,1.629-.92,1.667,1.667,0,0,1,1.709,1.759v3.478h-1.619V81.333a.859.859,0,0,0-.859-.96,1.043,1.043,0,0,0-.86.43v3.538h-1.619Z"/>
    <path class="cls-2" d="M176.584,82.532l.96.95a2.715,2.715,0,0,1-2.1.959,2.669,2.669,0,0,1,0-5.337,2.793,2.793,0,0,1,2.149.949l-.99.99a1.347,1.347,0,0,0-1.1-.56,1.288,1.288,0,0,0,.04,2.559A1.245,1.245,0,0,0,176.584,82.532Z"/>
    <path class="cls-2" d="M178.4,77.195l1.619-.25v3.079a1.9,1.9,0,0,1,1.629-.92,1.667,1.667,0,0,1,1.709,1.759v3.478h-1.619V81.333a.859.859,0,0,0-.86-.96,1.041,1.041,0,0,0-.859.43v3.538H178.4Z"/>
  </g>
  <g>
    <line class="cls-4" x1="81.278" y1="195.608" x2="81.278" y2="229.674"/>
    <polygon class="cls-5" points="77.539 228.58 81.278 235.056 85.018 228.58 77.539 228.58"/>
  </g>
  <g>
    <line class="cls-4" x1="250.01" y1="195.608" x2="250.01" y2="229.674"/>
    <polygon class="cls-5" points="246.271 228.58 250.01 235.056 253.749 228.58 246.271 228.58"/>
  </g>
  <g>
    <line class="cls-6" x1="179.298" y1="195.608" x2="179.298" y2="307.554"/>
    <polygon class="cls-7" points="175.559 306.46 179.298 312.936 183.037 306.46 175.559 306.46"/>
  </g>
  <g>
    <line class="cls-8" x1="396.75" y1="195.608" x2="396.75" y2="307.554"/>
    <polygon class="cls-7" points="393.01 306.46 396.749 312.936 400.489 306.46 393.01 306.46"/>
  </g>
  <g>
    <line class="cls-9" x1="405.605" y1="195.608" x2="405.605" y2="229.674"/>
    <polygon class="cls-5" points="401.866 228.58 405.605 235.056 409.345 228.58 401.866 228.58"/>
  </g>
  <g>
    <line class="cls-10" x1="238.868" y1="81.656" x2="238.868" y2="151.967"/>
    <polygon class="cls-11" points="235.128 150.872 238.867 157.348 242.607 150.872 235.128 150.872"/>
  </g>
  <g>
    <line class="cls-10" x1="102.796" y1="157.195" x2="102.796" y2="106.225"/>
    <polygon class="cls-11" points="106.536 107.319 102.797 100.843 99.057 107.319 106.536 107.319"/>
  </g>
  <polygon class="cls-12" points="375.278 50.843 260.678 50.843 260.678 12.468 375.278 12.468 396.75 31.656 375.278 50.843"/>
  <g>
    <path class="cls-2" d="M271.732,27.2l1.619-.25v3.079a1.9,1.9,0,0,1,1.629-.92,1.667,1.667,0,0,1,1.709,1.759v3.478H275.07V31.333a.859.859,0,0,0-.859-.96,1.043,1.043,0,0,0-.86.43v3.538h-1.619Z"/>
    <path class="cls-2" d="M280.371,29.1a2.669,2.669,0,1,1-2.688,2.669A2.625,2.625,0,0,1,280.371,29.1Zm1.119,2.669a1.13,1.13,0,1,0-2.228,0,1.127,1.127,0,1,0,2.228,0Z"/>
    <path class="cls-2" d="M284.631,30.433h-1V29.184h1V27.755l1.619-.33v1.759h1.38v1.249h-1.38v2c0,.46.181.62.68.62a2.17,2.17,0,0,0,.66-.11v1.309a4.5,4.5,0,0,1-1.11.16c-1.219,0-1.849-.56-1.849-1.659Z"/>
    <path class="cls-2" d="M289.392,29.184V28.5c0-1.229.729-1.9,2.059-1.9a3.691,3.691,0,0,1,.859.1v1.329a3.331,3.331,0,0,0-.62-.06c-.46,0-.679.181-.679.56v.65h1.3v1.249h-1.3v3.908h-1.619V30.433h-1.07V29.184Z"/>
    <path class="cls-2" d="M293.132,27.485a.915.915,0,0,1,1.829,0,.915.915,0,0,1-1.829,0Zm1.719,6.856h-1.619V29.184h1.619Z"/>
    <path class="cls-2" d="M297.491,31.742l-1.9-2.558h1.869l.95,1.379.959-1.379h1.8L299.3,31.7l1.989,2.639H299.41l-1.02-1.469-1.019,1.469h-1.789Z"/>
  </g>
  <g>
    <line class="cls-13" x1="396.75" y1="31.656" x2="396.75" y2="151.967"/>
    <polygon class="cls-14" points="393.01 150.872 396.749 157.348 400.489 150.872 393.01 150.872"/>
  </g>
  <g>
    <line class="cls-13" x1="260.678" y1="157.089" x2="260.678" y2="56.225"/>
    <polygon class="cls-14" points="264.417 57.319 260.678 50.843 256.939 57.319 264.417 57.319"/>
  </g>
  <polygon class="cls-15" points="501.415 273.488 69.298 273.488 69.298 235.113 501.415 235.113 525.978 254.301 501.415 273.488"/>
  <g>
    <path class="cls-2" d="M81.278,251.913h1.6v.72a1.9,1.9,0,0,1,1.529-.749,2.457,2.457,0,0,1,2.279,2.618,2.486,2.486,0,0,1-2.4,2.6,1.8,1.8,0,0,1-1.39-.6v2.718H81.278Zm1.619,1.729v1.72a1.331,1.331,0,0,0,.97.409,1.275,1.275,0,0,0,0-2.548A1.252,1.252,0,0,0,82.9,253.642Z"/>
    <path class="cls-2" d="M87.718,251.913h1.619v1.17c.33-.86.79-1.27,1.4-1.27a1.106,1.106,0,0,1,.54.131v1.389a1.773,1.773,0,0,0-.759-.16,1.427,1.427,0,0,0-1.18.639v3.259H87.718Z"/>
    <path class="cls-2" d="M94.447,251.833a2.669,2.669,0,1,1-2.689,2.669A2.626,2.626,0,0,1,94.447,251.833Zm1.119,2.669a1.13,1.13,0,1,0-2.229,0,1.128,1.128,0,1,0,2.229,0Z"/>
    <path class="cls-2" d="M101.8,256.4a1.945,1.945,0,0,1-1.519.7A2.457,2.457,0,0,1,98,254.482a2.486,2.486,0,0,1,2.4-2.6,1.8,1.8,0,0,1,1.38.619v-2.578l1.619-.25v7.4h-1.6Zm-.98-.64a1.254,1.254,0,0,0,.96-.41v-1.738a1.314,1.314,0,0,0-.96-.4,1.275,1.275,0,0,0,0,2.548Z"/>
    <path class="cls-2" d="M106.237,254.922a.859.859,0,0,0,.859.959,1.043,1.043,0,0,0,.86-.43v-3.538h1.619v5.158h-1.619v-.84a1.9,1.9,0,0,1-1.629.92,1.667,1.667,0,0,1-1.709-1.76v-3.478h1.619Z"/>
    <path class="cls-2" d="M114.416,255.261l.959.95a2.713,2.713,0,0,1-2.1.96,2.669,2.669,0,0,1,0-5.338,2.791,2.791,0,0,1,2.149.95l-.989.989a1.351,1.351,0,0,0-1.1-.559,1.288,1.288,0,0,0,.04,2.558A1.248,1.248,0,0,0,114.416,255.261Z"/>
    <path class="cls-2" d="M117.007,253.163h-1v-1.25h1v-1.429l1.619-.329v1.758h1.379v1.25h-1.379v2c0,.46.18.62.68.62a2.161,2.161,0,0,0,.659-.11v1.31a4.492,4.492,0,0,1-1.109.159c-1.219,0-1.849-.559-1.849-1.659Z"/>
    <path class="cls-2" d="M120.808,250.214a.912.912,0,0,1,.909-.909.922.922,0,0,1,.92.909.915.915,0,0,1-1.829,0Zm1.718,6.857h-1.618v-5.158h1.618Z"/>
    <path class="cls-2" d="M126.246,251.833a2.669,2.669,0,1,1-2.688,2.669A2.626,2.626,0,0,1,126.246,251.833Zm1.119,2.669a1.13,1.13,0,1,0-2.228,0,1.127,1.127,0,1,0,2.228,0Z"/>
    <path class="cls-2" d="M129.978,251.913H131.6v.84a1.9,1.9,0,0,1,1.63-.92,1.667,1.667,0,0,1,1.709,1.76v3.478h-1.62v-3.009a.858.858,0,0,0-.859-.959,1.042,1.042,0,0,0-.86.429v3.539h-1.618Z"/>
    <path class="cls-2" d="M141.315,257.1a1.806,1.806,0,0,1-1.409-.659v.63h-1.6v-7.146l1.619-.25v2.9a1.949,1.949,0,0,1,1.509-.689,2.457,2.457,0,0,1,2.279,2.618A2.486,2.486,0,0,1,141.315,257.1Zm-1.389-3.458v1.72a1.331,1.331,0,0,0,.97.409,1.275,1.275,0,0,0,0-2.548A1.252,1.252,0,0,0,139.926,253.642Z"/>
    <path class="cls-2" d="M144.747,251.913h1.619v1.17c.33-.86.789-1.27,1.4-1.27a1.106,1.106,0,0,1,.54.131v1.389a1.775,1.775,0,0,0-.76-.16,1.425,1.425,0,0,0-1.179.639v3.259h-1.619Z"/>
    <path class="cls-2" d="M148.827,255.592c0-.95.74-1.5,2.009-1.5a3.359,3.359,0,0,1,1.2.24v-.42c0-.5-.33-.749-1.02-.749a3.84,3.84,0,0,0-1.449.36l-.56-1.13a5.707,5.707,0,0,1,2.369-.56c1.429,0,2.259.71,2.259,1.939v3.3h-1.6v-.45a2.055,2.055,0,0,1-1.43.53A1.605,1.605,0,0,1,148.827,255.592Zm2.279.489a1.762,1.762,0,0,0,.93-.26v-.66a3.926,3.926,0,0,0-.89-.109c-.53,0-.83.18-.83.509S150.606,256.081,151.106,256.081Z"/>
    <path class="cls-2" d="M154.857,251.913h1.619v.84a1.9,1.9,0,0,1,1.629-.92,1.667,1.667,0,0,1,1.709,1.76v3.478H158.2v-3.009a.859.859,0,0,0-.86-.959,1.04,1.04,0,0,0-.859.429v3.539h-1.619Z"/>
    <path class="cls-2" d="M164.615,255.261l.959.95a2.712,2.712,0,0,1-2.1.96,2.669,2.669,0,0,1,0-5.338,2.794,2.794,0,0,1,2.149.95l-.99.989a1.351,1.351,0,0,0-1.1-.559,1.288,1.288,0,0,0,.04,2.558A1.247,1.247,0,0,0,164.615,255.261Z"/>
    <path class="cls-2" d="M166.427,249.925l1.618-.25v3.078a1.9,1.9,0,0,1,1.63-.92,1.667,1.667,0,0,1,1.709,1.76v3.478h-1.619v-3.009a.859.859,0,0,0-.86-.959,1.042,1.042,0,0,0-.86.429v3.539h-1.618Z"/>
  </g>
  <g>
    <circle class="cls-16" cx="396.75" cy="176.478" r="17.02"/>
    <g>
      <path class="cls-2" d="M388.1,172.919l.442.441a1.689,1.689,0,0,1-1.272.565,1.68,1.68,0,0,1,0-3.36,1.751,1.751,0,0,1,1.3.545l-.454.473a1.073,1.073,0,0,0-.817-.382,1.042,1.042,0,0,0,.02,2.075A1,1,0,0,0,388.1,172.919Z"/>
      <path class="cls-2" d="M390.557,170.559a1.684,1.684,0,1,1-1.635,1.68A1.622,1.622,0,0,1,390.557,170.559Zm.907,1.686a.918.918,0,1,0-1.815,0,.916.916,0,1,0,1.815,0Z"/>
      <path class="cls-2" d="M392.95,170.611h.732v.519a1.108,1.108,0,0,1,.967-.571,1.021,1.021,0,0,1,.953.629,1.2,1.2,0,0,1,1.076-.629,1.077,1.077,0,0,1,1.064,1.18v2.121h-.733V171.9a.658.658,0,0,0-.655-.746.776.776,0,0,0-.655.382c.007.072.013.137.013.208v2.121h-.733V171.9a.657.657,0,0,0-.654-.746.756.756,0,0,0-.643.369v2.342h-.732Z"/>
      <path class="cls-2" d="M398.63,170.611h.733v.519a1.107,1.107,0,0,1,.967-.571,1.021,1.021,0,0,1,.953.629,1.2,1.2,0,0,1,1.076-.629,1.076,1.076,0,0,1,1.063,1.18v2.121h-.732V171.9a.658.658,0,0,0-.655-.746.778.778,0,0,0-.656.382c.007.072.014.137.014.208v2.121h-.733V171.9a.658.658,0,0,0-.655-.746.755.755,0,0,0-.642.369v2.342h-.733Z"/>
      <path class="cls-2" d="M404.221,169.5a.457.457,0,0,1,.914,0,.457.457,0,0,1-.914,0Zm.823,4.358h-.732v-3.249h.732Z"/>
      <path class="cls-2" d="M406.348,171.194h-.655v-.583h.655v-.895l.733-.156v1.051h.908v.583h-.908v1.648c0,.317.123.44.454.44a1.345,1.345,0,0,0,.44-.077v.616a2.31,2.31,0,0,1-.629.09c-.654,0-1-.311-1-.907Z"/>
      <path class="cls-2" d="M386.726,181.642l-.875-3.249h.7l.571,2.3.668-2.3h.623l.668,2.3.563-2.3h.688l-.875,3.249h-.707l-.656-2.289-.654,2.289Z"/>
      <path class="cls-2" d="M390.844,177.284a.457.457,0,0,1,.914,0,.457.457,0,0,1-.914,0Zm.823,4.358h-.732v-3.249h.732Z"/>
      <path class="cls-2" d="M392.972,178.976h-.655v-.583h.655v-.9l.733-.155v1.05h.908v.583h-.908v1.648c0,.318.123.441.454.441a1.349,1.349,0,0,0,.44-.078v.616a2.311,2.311,0,0,1-.629.091c-.654,0-1-.311-1-.908Z"/>
      <path class="cls-2" d="M395.254,177.005l.733-.123v2.043a1.178,1.178,0,0,1,1.031-.584,1.094,1.094,0,0,1,1.122,1.161v2.14h-.732v-1.933a.7.7,0,0,0-.714-.778.834.834,0,0,0-.707.389v2.322h-.733Z"/>
      <path class="cls-2" d="M400.928,178.393v-.577a1,1,0,0,1,1.122-1.09,1.761,1.761,0,0,1,.487.065v.623a1.491,1.491,0,0,0-.389-.052c-.337,0-.486.149-.486.467v.564h.875v.583h-.875v2.666h-.734v-2.666h-.7v-.583Z"/>
      <path class="cls-2" d="M403.063,177.284a.457.457,0,0,1,.914,0,.457.457,0,0,1-.914,0Zm.823,4.358h-.732v-3.249h.732Z"/>
      <path class="cls-2" d="M405.63,179.988l-1.186-1.595h.855l.759,1.07.759-1.07h.817l-1.167,1.576,1.258,1.673h-.862l-.818-1.148-.817,1.148h-.816Z"/>
    </g>
  </g>
  <g>
    <circle class="cls-16" cx="396.75" cy="254.301" r="17.02"/>
    <g>
      <path class="cls-2" d="M388.1,250.741l.442.441a1.689,1.689,0,0,1-1.272.565,1.68,1.68,0,0,1,0-3.36,1.751,1.751,0,0,1,1.3.545l-.454.474a1.074,1.074,0,0,0-.817-.383,1.042,1.042,0,0,0,.02,2.075A1,1,0,0,0,388.1,250.741Z"/>
      <path class="cls-2" d="M390.557,248.381a1.684,1.684,0,1,1-1.635,1.68A1.622,1.622,0,0,1,390.557,248.381Zm.907,1.686a.918.918,0,1,0-1.815,0,.916.916,0,1,0,1.815,0Z"/>
      <path class="cls-2" d="M392.95,248.433h.732v.519a1.108,1.108,0,0,1,.967-.571,1.022,1.022,0,0,1,.953.629,1.2,1.2,0,0,1,1.076-.629,1.077,1.077,0,0,1,1.064,1.18v2.121h-.733v-1.965a.658.658,0,0,0-.655-.746.775.775,0,0,0-.655.383,2.054,2.054,0,0,1,.013.207v2.121h-.733v-1.965a.657.657,0,0,0-.654-.746.754.754,0,0,0-.643.37v2.341h-.732Z"/>
      <path class="cls-2" d="M398.63,248.433h.733v.519a1.107,1.107,0,0,1,.967-.571,1.022,1.022,0,0,1,.953.629,1.2,1.2,0,0,1,1.076-.629,1.076,1.076,0,0,1,1.063,1.18v2.121h-.732v-1.965a.658.658,0,0,0-.655-.746.777.777,0,0,0-.656.383,2.056,2.056,0,0,1,.014.207v2.121h-.733v-1.965a.658.658,0,0,0-.655-.746.754.754,0,0,0-.642.37v2.341h-.733Z"/>
      <path class="cls-2" d="M404.221,247.324a.457.457,0,0,1,.914,0,.457.457,0,0,1-.914,0Zm.823,4.358h-.732v-3.249h.732Z"/>
      <path class="cls-2" d="M406.348,249.016h-.655v-.583h.655v-.895l.733-.155v1.05h.908v.583h-.908v1.648c0,.318.123.441.454.441a1.349,1.349,0,0,0,.44-.078v.616a2.311,2.311,0,0,1-.629.091c-.654,0-1-.311-1-.908Z"/>
      <path class="cls-2" d="M386.726,259.464l-.875-3.249h.7l.571,2.3.668-2.3h.623l.668,2.3.563-2.3h.688l-.875,3.249h-.707l-.656-2.289-.654,2.289Z"/>
      <path class="cls-2" d="M390.844,255.106a.457.457,0,0,1,.914,0,.457.457,0,0,1-.914,0Zm.823,4.358h-.732v-3.249h.732Z"/>
      <path class="cls-2" d="M392.972,256.8h-.655v-.584h.655v-.895l.733-.155v1.05h.908v.584h-.908v1.647c0,.318.123.441.454.441a1.349,1.349,0,0,0,.44-.078v.616a2.273,2.273,0,0,1-.629.091c-.654,0-1-.311-1-.908Z"/>
      <path class="cls-2" d="M395.254,254.827l.733-.123v2.043a1.178,1.178,0,0,1,1.031-.584,1.094,1.094,0,0,1,1.122,1.161v2.14h-.732v-1.933a.7.7,0,0,0-.714-.778.834.834,0,0,0-.707.389v2.322h-.733Z"/>
      <path class="cls-2" d="M400.928,256.215v-.577a1,1,0,0,1,1.122-1.089,1.724,1.724,0,0,1,.487.065v.622a1.491,1.491,0,0,0-.389-.052c-.337,0-.486.149-.486.467v.564h.875v.584h-.875v2.665h-.734V256.8h-.7v-.584Z"/>
      <path class="cls-2" d="M403.063,255.106a.457.457,0,0,1,.914,0,.457.457,0,0,1-.914,0Zm.823,4.358h-.732v-3.249h.732Z"/>
      <path class="cls-2" d="M405.63,257.81l-1.186-1.6h.855l.759,1.07.759-1.07h.817l-1.167,1.576,1.258,1.673h-.862l-.818-1.148-.817,1.148h-.816Z"/>
    </g>
  </g>
  <polygon class="cls-17" points="501.415 351.311 179.298 351.311 179.298 312.936 501.415 312.936 525.978 332.123 501.415 351.311"/>
  <g>
    <path class="cls-2" d="M192.294,329.736h1.619v1.17c.33-.86.789-1.27,1.4-1.27a1.106,1.106,0,0,1,.54.13v1.39a1.76,1.76,0,0,0-.76-.161,1.424,1.424,0,0,0-1.179.64v3.258h-1.619Z"/>
    <path class="cls-2" d="M199.052,334.993a2.666,2.666,0,0,1-2.718-2.668,2.587,2.587,0,0,1,2.6-2.679,2.535,2.535,0,0,1,2.538,2.739v.35h-3.548a1.237,1.237,0,0,0,1.209.969,1.277,1.277,0,0,0,1.02-.43l1.069.89A3.006,3.006,0,0,1,199.052,334.993Zm-1.129-3.178h2.049a1.074,1.074,0,0,0-1.05-.909A1.023,1.023,0,0,0,197.923,331.815Z"/>
    <path class="cls-2" d="M204.1,334.893h-1.619v-7.146l1.619-.25Z"/>
    <path class="cls-2" d="M207.852,334.993a2.666,2.666,0,0,1-2.718-2.668,2.587,2.587,0,0,1,2.6-2.679,2.535,2.535,0,0,1,2.539,2.739v.35h-3.548a1.237,1.237,0,0,0,1.209.969,1.277,1.277,0,0,0,1.02-.43l1.069.89A3.006,3.006,0,0,1,207.852,334.993Zm-1.129-3.178h2.048a1.072,1.072,0,0,0-1.049-.909A1.023,1.023,0,0,0,206.723,331.815Z"/>
    <path class="cls-2" d="M211.043,333.414c0-.949.74-1.5,2.01-1.5a3.358,3.358,0,0,1,1.2.24v-.42c0-.5-.33-.749-1.02-.749a3.839,3.839,0,0,0-1.449.359l-.559-1.129a5.7,5.7,0,0,1,2.368-.56c1.429,0,2.259.71,2.259,1.939v3.3h-1.6v-.449a2.058,2.058,0,0,1-1.429.529A1.6,1.6,0,0,1,211.043,333.414Zm2.279.49a1.762,1.762,0,0,0,.93-.26v-.66a3.871,3.871,0,0,0-.89-.11c-.529,0-.829.18-.829.51S212.823,333.9,213.322,333.9Z"/>
    <path class="cls-2" d="M217.363,333.284a3.339,3.339,0,0,0,1.659.52c.46,0,.74-.16.74-.42,0-.2-.15-.31-.48-.37l-.989-.18c-1-.189-1.52-.7-1.52-1.5,0-1.059.81-1.689,2.16-1.689a4.142,4.142,0,0,1,2.1.59l-.739,1.029a2.929,2.929,0,0,0-1.48-.44c-.389,0-.619.13-.619.36,0,.21.13.3.53.37l.969.18c1.019.19,1.559.71,1.549,1.489.01,1.01-.949,1.769-2.219,1.769a4.218,4.218,0,0,1-2.368-.629Z"/>
    <path class="cls-2" d="M224.722,334.993A2.667,2.667,0,0,1,222,332.325a2.588,2.588,0,0,1,2.6-2.679,2.535,2.535,0,0,1,2.539,2.739v.35h-3.549a1.238,1.238,0,0,0,1.21.969,1.276,1.276,0,0,0,1.019-.43l1.07.89A3.009,3.009,0,0,1,224.722,334.993Zm-1.13-3.178h2.049a1.073,1.073,0,0,0-1.049-.909A1.024,1.024,0,0,0,223.592,331.815Z"/>
    <path class="cls-2" d="M232.912,334.893h-1.539v-5.4l-1.38.57v-1.359l1.949-.81h.97Z"/>
    <path class="cls-2" d="M235.8,334.054a.906.906,0,1,1-.9-.95A.933.933,0,0,1,235.8,334.054Z"/>
    <path class="cls-2" d="M236.783,333.794l2.959-2.929a1.3,1.3,0,0,0,.469-.929c0-.45-.44-.79-1.029-.79a2.409,2.409,0,0,0-1.769.86l-.86-1.049a3.84,3.84,0,0,1,2.679-1.15c1.489,0,2.478.81,2.478,2.029a2.443,2.443,0,0,1-.909,1.809l-2.019,1.949,3.029-.01v1.309h-5.028Z"/>
    <path class="cls-2" d="M244.522,334.054a.906.906,0,1,1-.9-.95A.933.933,0,0,1,244.522,334.054Z"/>
    <path class="cls-2" d="M247,332.3l-1.9-2.559h1.869l.949,1.379.96-1.379h1.8l-1.869,2.519,1.989,2.638h-1.879l-1.02-1.469-1.019,1.469h-1.789Z"/>
  </g>
  <circle class="cls-18" cx="396.75" cy="94.502" r="11.142"/>
  <path d="M400.877,101.787h-.485c-.038-.011-.076-.024-.114-.032a1.886,1.886,0,0,1-1.511-1.394,1.772,1.772,0,0,1,.585-1.946.821.821,0,0,0,.317-.735c-.011-1.842,0-3.684-.006-5.526a1.015,1.015,0,0,0-1.048-1.055h-.9v1.908l-.035.021-2.866-2.868c0,.042,0,.075-.008.109a1.912,1.912,0,0,1-.851,1.454.241.241,0,0,0-.118.233q0,3.028,0,6.057a.264.264,0,0,0,.13.243,1.848,1.848,0,0,1,.808,1.927,1.876,1.876,0,0,1-1.374,1.528c-.1.031-.193.051-.29.076h-.485a.642.642,0,0,0-.084-.029,1.921,1.921,0,0,1-1.54-1.381c-.031-.095-.051-.194-.076-.291V99.6a.154.154,0,0,0,.022-.039,1.946,1.946,0,0,1,.869-1.348.235.235,0,0,0,.077-.172q.006-3.057,0-6.113a.2.2,0,0,0-.1-.2A1.9,1.9,0,0,1,391,90.66c-.029-.1-.051-.193-.077-.29v-.485a.717.717,0,0,0,.03-.1,1.94,1.94,0,0,1,3.8-.12c.033.139.049.283.079.454l2.9-2.9v1.939c.276,0,.534-.008.792,0a4.992,4.992,0,0,1,.723.063,2.8,2.8,0,0,1,1.895,1.143,3,3,0,0,1,.471,1.759q0,2.937,0,5.875a.273.273,0,0,0,.128.259,1.845,1.845,0,0,1,.809,1.926,1.876,1.876,0,0,1-1.374,1.528C401.072,101.742,400.974,101.762,400.877,101.787ZM391.9,99.832a.971.971,0,1,0,.986-.96A.972.972,0,0,0,391.9,99.832Zm9.71.016a.971.971,0,1,0-.979.967A.972.972,0,0,0,401.605,99.848Zm-8.739-10.692a.971.971,0,1,0,.97.976A.972.972,0,0,0,392.866,89.156Z"/>
  <circle class="cls-19" cx="238.868" cy="119.502" r="11.142"/>
  <path d="M243,126.787h-.485c-.038-.011-.075-.024-.114-.032a1.886,1.886,0,0,1-1.511-1.394,1.772,1.772,0,0,1,.585-1.946.821.821,0,0,0,.317-.735c-.011-1.842,0-3.684-.006-5.526a1.015,1.015,0,0,0-1.048-1.055h-.9v1.908l-.036.021-2.866-2.868c0,.042,0,.075-.008.109a1.912,1.912,0,0,1-.851,1.454.243.243,0,0,0-.118.233q0,3.028,0,6.057a.264.264,0,0,0,.13.243,1.848,1.848,0,0,1,.808,1.927,1.875,1.875,0,0,1-1.373,1.528c-.095.031-.194.051-.29.076h-.486a.683.683,0,0,0-.083-.029,1.921,1.921,0,0,1-1.541-1.381c-.031-.095-.051-.194-.075-.291V124.6a.149.149,0,0,0,.021-.039,1.949,1.949,0,0,1,.869-1.348.235.235,0,0,0,.077-.172q.006-3.057.006-6.113a.2.2,0,0,0-.1-.2,1.9,1.9,0,0,1-.793-1.074c-.029-.1-.051-.193-.076-.29v-.485a.712.712,0,0,0,.029-.1,1.94,1.94,0,0,1,3.8-.12c.034.139.05.283.079.454l2.9-2.9v1.939c.277,0,.535-.008.792,0a4.992,4.992,0,0,1,.723.063,2.8,2.8,0,0,1,1.895,1.143,3,3,0,0,1,.471,1.759q0,2.937,0,5.875a.274.274,0,0,0,.129.259,1.845,1.845,0,0,1,.808,1.926,1.875,1.875,0,0,1-1.374,1.528C243.19,126.742,243.092,126.762,243,126.787Zm-8.982-1.955a.971.971,0,1,0,.986-.96A.972.972,0,0,0,234.013,124.832Zm9.711.016a.971.971,0,1,0-.98.967A.972.972,0,0,0,243.724,124.848Zm-8.74-10.692a.971.971,0,1,0,.97.976A.972.972,0,0,0,234.984,114.156Z"/>
  <g>
    <circle class="cls-16" cx="396.75" cy="332.123" r="17.02"/>
    <g>
      <path class="cls-2" d="M388.1,328.564l.442.441a1.689,1.689,0,0,1-1.272.565,1.68,1.68,0,0,1,0-3.36,1.751,1.751,0,0,1,1.3.545l-.454.473a1.073,1.073,0,0,0-.817-.382,1.042,1.042,0,0,0,.02,2.075A1,1,0,0,0,388.1,328.564Z"/>
      <path class="cls-2" d="M390.557,326.2a1.684,1.684,0,1,1-1.635,1.68A1.622,1.622,0,0,1,390.557,326.2Zm.907,1.686a.918.918,0,1,0-1.815,0,.916.916,0,1,0,1.815,0Z"/>
      <path class="cls-2" d="M392.95,326.256h.732v.519a1.108,1.108,0,0,1,.967-.571,1.021,1.021,0,0,1,.953.629,1.2,1.2,0,0,1,1.076-.629,1.077,1.077,0,0,1,1.064,1.18v2.121h-.733V327.54a.658.658,0,0,0-.655-.746.775.775,0,0,0-.655.383,2.054,2.054,0,0,1,.013.207v2.121h-.733V327.54a.657.657,0,0,0-.654-.746.756.756,0,0,0-.643.369v2.342h-.732Z"/>
      <path class="cls-2" d="M398.63,326.256h.733v.519a1.107,1.107,0,0,1,.967-.571,1.021,1.021,0,0,1,.953.629,1.2,1.2,0,0,1,1.076-.629,1.076,1.076,0,0,1,1.063,1.18v2.121h-.732V327.54a.658.658,0,0,0-.655-.746.777.777,0,0,0-.656.383,2.056,2.056,0,0,1,.014.207v2.121h-.733V327.54a.658.658,0,0,0-.655-.746.755.755,0,0,0-.642.369v2.342h-.733Z"/>
      <path class="cls-2" d="M404.221,325.147a.457.457,0,0,1,.914,0,.457.457,0,0,1-.914,0Zm.823,4.358h-.732v-3.249h.732Z"/>
      <path class="cls-2" d="M406.348,326.839h-.655v-.583h.655v-.895l.733-.156v1.051h.908v.583h-.908v1.648c0,.317.123.44.454.44a1.345,1.345,0,0,0,.44-.077v.616a2.31,2.31,0,0,1-.629.09c-.654,0-1-.311-1-.907Z"/>
      <path class="cls-2" d="M386.726,337.287l-.875-3.249h.7l.571,2.3.668-2.3h.623l.668,2.3.563-2.3h.688l-.875,3.249h-.707L388.094,335l-.654,2.289Z"/>
      <path class="cls-2" d="M390.844,332.929a.457.457,0,0,1,.914,0,.457.457,0,0,1-.914,0Zm.823,4.358h-.732v-3.249h.732Z"/>
      <path class="cls-2" d="M392.972,334.621h-.655v-.583h.655v-.9l.733-.155v1.05h.908v.583h-.908v1.648c0,.318.123.441.454.441a1.349,1.349,0,0,0,.44-.078v.616a2.311,2.311,0,0,1-.629.091c-.654,0-1-.311-1-.908Z"/>
      <path class="cls-2" d="M395.254,332.65l.733-.123v2.043a1.178,1.178,0,0,1,1.031-.584,1.094,1.094,0,0,1,1.122,1.161v2.14h-.732v-1.933a.7.7,0,0,0-.714-.778.834.834,0,0,0-.707.389v2.322h-.733Z"/>
      <path class="cls-2" d="M400.928,334.038v-.577a1,1,0,0,1,1.122-1.09,1.761,1.761,0,0,1,.487.065v.623a1.491,1.491,0,0,0-.389-.052c-.337,0-.486.149-.486.467v.564h.875v.583h-.875v2.666h-.734v-2.666h-.7v-.583Z"/>
      <path class="cls-2" d="M403.063,332.929a.457.457,0,0,1,.914,0,.457.457,0,0,1-.914,0Zm.823,4.358h-.732v-3.249h.732Z"/>
      <path class="cls-2" d="M405.63,335.633l-1.186-1.595h.855l.759,1.07.759-1.07h.817l-1.167,1.576,1.258,1.673h-.862l-.818-1.148-.817,1.148h-.816Z"/>
    </g>
  </g>
  <g>
    <path class="cls-20" d="M400.237,345.585a2.515,2.515,0,0,1,2.632-2.649c2.576-.023,5.153,0,7.729-.01a1.2,1.2,0,0,1,.921.365c3.668,3.68,11.349,11.344,15.011,15.031a2.336,2.336,0,0,1,.035,3.46q-3.7,3.771-7.468,7.47a2.36,2.36,0,0,1-3.509-.052c-3.651-3.636-11.287-11.286-14.937-14.923a1.327,1.327,0,0,1-.425-1.027c.015-1.266,0-2.533.006-3.8C400.232,348.162,400.214,346.873,400.237,345.585Zm4.86,1.037a1.18,1.18,0,1,0-1.147,1.165A1.241,1.241,0,0,0,405.1,346.622Z"/>
    <g>
      <path class="cls-2" d="M408.983,355.309l-.618-.667,3.589-3.323-1.035-.453.594-.55,1.365.6.392.422Z"/>
      <path class="cls-2" d="M410.871,356.562a.585.585,0,1,1,.049-.842A.6.6,0,0,1,410.871,356.562Z"/>
      <path class="cls-2" d="M411.551,357.114l3.465.056a1.566,1.566,0,0,0,1.194-.332.953.953,0,0,0-.095-1.369,2.113,2.113,0,0,0-1.553-.621l.107-.805a2.962,2.962,0,0,1,2.045.906,1.7,1.7,0,0,1,.14,2.5,2.229,2.229,0,0,1-1.762.493l-2.684-.061,1.924,2.052-.577.533-2.687-2.9Z"/>
      <path class="cls-2" d="M415.489,361.55a.585.585,0,1,1-.794-.857.585.585,0,1,1,.794.857Z"/>
      <path class="cls-2" d="M416.605,363.542l-.618-.668,3.589-3.323-1.034-.454.593-.55,1.365.6.392.423Z"/>
    </g>
  </g>
  <rect class="cls-21" x="391.795" y="210.52" width="21.975" height="7.11"/>
  <g>
    <path class="cls-2" d="M386.872,214.392l.441.441a1.69,1.69,0,0,1-1.271.564,1.68,1.68,0,0,1,0-3.359,1.751,1.751,0,0,1,1.3.545l-.454.473a1.07,1.07,0,0,0-.816-.382,1.042,1.042,0,0,0,.019,2.075A1,1,0,0,0,386.872,214.392Z"/>
    <path class="cls-2" d="M387.942,210.7l.732-.123v2.042a1.182,1.182,0,0,1,1.032-.584,1.094,1.094,0,0,1,1.122,1.161v2.14H390.1V213.4a.7.7,0,0,0-.714-.779.836.836,0,0,0-.707.389v2.322h-.732Z"/>
    <path class="cls-2" d="M393.22,215.4a1.651,1.651,0,0,1-1.653-1.686,1.6,1.6,0,0,1,1.582-1.68,1.559,1.559,0,0,1,1.537,1.673v.182h-2.4a.992.992,0,0,0,.972.889,1.061,1.061,0,0,0,.773-.305l.479.447A1.878,1.878,0,0,1,393.22,215.4Zm-.921-1.958h1.694a.89.89,0,0,0-.85-.811A.874.874,0,0,0,392.3,213.439Z"/>
    <path class="cls-2" d="M395.432,212.083h.733v.707a.963.963,0,0,1,.895-.765.843.843,0,0,1,.317.065v.642a1.029,1.029,0,0,0-.4-.078.891.891,0,0,0-.81.538v2.14h-.733Z"/>
    <path class="cls-2" d="M397.981,212.083h.732v.707a.965.965,0,0,1,.9-.765.843.843,0,0,1,.317.065v.642a1.029,1.029,0,0,0-.4-.078.892.892,0,0,0-.811.538v2.14h-.732Z"/>
    <path class="cls-2" d="M401.424,215.352l-1.225-3.269h.816l.824,2.413.909-2.413h.8L402,215.864a1.1,1.1,0,0,1-1.154.856,1.58,1.58,0,0,1-.37-.045v-.629a2.848,2.848,0,0,0,.285.026.519.519,0,0,0,.526-.376Z"/>
    <path class="cls-2" d="M406.249,213.186v.616h-2.256v-.616Z"/>
    <path class="cls-2" d="M407.073,212.083h.719v.467a1.225,1.225,0,0,1,1.012-.493,1.662,1.662,0,0,1-.052,3.307,1.214,1.214,0,0,1-.947-.421v1.764h-.732Zm.732.953v1.356a1,1,0,0,0,.778.357,1.04,1.04,0,0,0,0-2.075A.956.956,0,0,0,407.805,213.036Z"/>
    <path class="cls-2" d="M410.945,210.974a.457.457,0,0,1,.914,0,.457.457,0,0,1-.914,0Zm.823,4.358h-.732v-3.249h.732Z"/>
    <path class="cls-2" d="M414.991,214.392l.441.441a1.69,1.69,0,0,1-1.271.564,1.68,1.68,0,0,1,0-3.359,1.753,1.753,0,0,1,1.3.545l-.455.473a1.068,1.068,0,0,0-.816-.382,1.042,1.042,0,0,0,.02,2.075A1,1,0,0,0,414.991,214.392Z"/>
    <path class="cls-2" d="M416.062,210.7l.732-.123v2.9l1.349-1.388h.837l-1.485,1.5,1.576,1.744h-.941l-1.336-1.5v1.5h-.732Z"/>
  </g>
</svg>
