<svg id="Layer_1" data-name="Layer 1" xmlns="http://www.w3.org/2000/svg" width="210mm" height="87.638mm" viewBox="0 0 595.276 248.424">
  <defs>
    <style>
      .cls-1 {
        fill: #dcdcdc;
      }

      .cls-2 {
        fill: #080808;
      }

      .cls-3 {
        fill: #fcce9a;
      }

      .cls-11, .cls-4, .cls-6 {
        fill: none;
      }

      .cls-4, .cls-6 {
        stroke: #3f9c35;
      }

      .cls-11, .cls-4, .cls-8 {
        stroke-miterlimit: 10;
      }

      .cls-5 {
        fill: #3f9c35;
      }

      .cls-6 {
        stroke-linecap: round;
        stroke-linejoin: round;
        stroke-dasharray: 3 0 0 3 0 0;
      }

      .cls-7 {
        fill: #dfeac0;
      }

      .cls-10, .cls-8 {
        fill: #fff;
      }

      .cls-8 {
        stroke: #fcce9a;
      }

      .cls-9 {
        fill: #ffea6c;
      }

      .cls-11 {
        stroke: #faaa4f;
      }

      .cls-12 {
        fill: #faaa4f;
      }
    </style>
  </defs>
  <polygon class="cls-1" points="504.506 140.47 69.298 140.47 69.298 102.096 504.506 102.096 525.978 121.283 504.506 140.47"/>
  <g>
    <path class="cls-2" d="M81.278,118.811H82.9v.82a1.77,1.77,0,0,1,1.529-.9,1.527,1.527,0,0,1,1.449.96,1.948,1.948,0,0,1,1.689-.96,1.653,1.653,0,0,1,1.62,1.809v3.428h-1.62V120.86A.771.771,0,0,0,86.8,120a.885.885,0,0,0-.75.4v3.567H84.426V120.86a.771.771,0,0,0-.769-.859.927.927,0,0,0-.76.4v3.567H81.278Z"/>
    <path class="cls-2" d="M90.168,122.489c0-.949.74-1.5,2.009-1.5a3.35,3.35,0,0,1,1.2.24v-.42c0-.5-.33-.749-1.019-.749a3.835,3.835,0,0,0-1.449.36l-.56-1.13a5.707,5.707,0,0,1,2.369-.56c1.429,0,2.259.71,2.259,1.939v3.3h-1.6v-.449a2.051,2.051,0,0,1-1.429.53A1.6,1.6,0,0,1,90.168,122.489Zm2.279.49a1.756,1.756,0,0,0,.929-.26v-.66a3.856,3.856,0,0,0-.889-.11c-.53,0-.83.181-.83.51S91.947,122.979,92.447,122.979Z"/>
    <path class="cls-2" d="M96.1,117.112a.915.915,0,0,1,1.829,0,.915.915,0,0,1-1.829,0Zm1.719,6.856H96.2v-5.157h1.619Z"/>
    <path class="cls-2" d="M99.078,118.811H100.7v.84a1.9,1.9,0,0,1,1.629-.92,1.667,1.667,0,0,1,1.709,1.759v3.478h-1.619V120.96a.859.859,0,0,0-.859-.959,1.042,1.042,0,0,0-.86.429v3.538H99.078Z"/>
    <path class="cls-2" d="M110.417,124a1.807,1.807,0,0,1-1.41-.659v.629h-1.6v-7.146l1.619-.25v2.9a1.949,1.949,0,0,1,1.509-.69,2.458,2.458,0,0,1,2.279,2.619A2.486,2.486,0,0,1,110.417,124Zm-1.39-3.458v1.72a1.331,1.331,0,0,0,.97.409,1.275,1.275,0,0,0,0-2.548A1.249,1.249,0,0,0,109.027,120.54Z"/>
    <path class="cls-2" d="M113.848,118.811h1.619v1.17c.33-.86.79-1.27,1.4-1.27a1.1,1.1,0,0,1,.54.131v1.389a1.775,1.775,0,0,0-.76-.16,1.427,1.427,0,0,0-1.179.639v3.258h-1.619Z"/>
    <path class="cls-2" d="M117.928,122.489c0-.949.739-1.5,2.009-1.5a3.354,3.354,0,0,1,1.2.24v-.42c0-.5-.33-.749-1.019-.749a3.844,3.844,0,0,0-1.45.36l-.559-1.13a5.707,5.707,0,0,1,2.369-.56c1.429,0,2.258.71,2.258,1.939v3.3h-1.6v-.449a2.051,2.051,0,0,1-1.429.53A1.6,1.6,0,0,1,117.928,122.489Zm2.279.49a1.761,1.761,0,0,0,.929-.26v-.66a3.87,3.87,0,0,0-.889-.11c-.53,0-.83.181-.83.51S119.707,122.979,120.207,122.979Z"/>
    <path class="cls-2" d="M123.958,118.811h1.619v.84a1.9,1.9,0,0,1,1.629-.92,1.667,1.667,0,0,1,1.709,1.759v3.478H127.3V120.96a.859.859,0,0,0-.859-.959,1.041,1.041,0,0,0-.86.429v3.538h-1.619Z"/>
    <path class="cls-2" d="M133.715,122.159l.96.95a2.713,2.713,0,0,1-2.1.96,2.669,2.669,0,0,1,0-5.338,2.791,2.791,0,0,1,2.149.95l-.99.989a1.348,1.348,0,0,0-1.1-.559,1.288,1.288,0,0,0,.04,2.558A1.245,1.245,0,0,0,133.715,122.159Z"/>
    <path class="cls-2" d="M135.528,116.822l1.618-.25v3.079a1.9,1.9,0,0,1,1.63-.92,1.667,1.667,0,0,1,1.709,1.759v3.478h-1.619V120.96a.859.859,0,0,0-.86-.959,1.042,1.042,0,0,0-.86.429v3.538h-1.618Z"/>
  </g>
  <polygon class="cls-3" points="377.089 50.369 173.379 50.369 173.379 11.995 377.089 11.995 398.404 31.182 377.089 50.369"/>
  <g>
    <line class="cls-4" x1="191.84" y1="140.413" x2="191.84" y2="174.479"/>
    <polygon class="cls-5" points="188.101 173.385 191.84 179.861 195.58 173.385 188.101 173.385"/>
  </g>
  <g>
    <line class="cls-6" x1="398.75" y1="140.413" x2="398.75" y2="174.479"/>
    <polygon class="cls-5" points="395.01 173.385 398.749 179.861 402.489 173.385 395.01 173.385"/>
  </g>
  <polygon class="cls-7" points="502.304 218.293 191.84 218.293 191.84 179.918 502.304 179.918 525.978 199.105 502.304 218.293"/>
  <g>
    <circle class="cls-8" cx="398.75" cy="121.283" r="17.02"/>
    <g>
      <path class="cls-2" d="M390.1,117.724l.442.441a1.692,1.692,0,0,1-1.272.564,1.68,1.68,0,0,1,0-3.359,1.751,1.751,0,0,1,1.3.545l-.454.473a1.073,1.073,0,0,0-.817-.382,1.042,1.042,0,0,0,.02,2.075A1,1,0,0,0,390.1,117.724Z"/>
      <path class="cls-2" d="M392.557,115.364a1.683,1.683,0,1,1-1.635,1.679A1.622,1.622,0,0,1,392.557,115.364Zm.907,1.686a.918.918,0,1,0-1.815,0,.916.916,0,1,0,1.815,0Z"/>
      <path class="cls-2" d="M394.95,115.415h.732v.519a1.109,1.109,0,0,1,.967-.57,1.021,1.021,0,0,1,.953.628,1.2,1.2,0,0,1,1.076-.628,1.077,1.077,0,0,1,1.064,1.18v2.12h-.733V116.7a.658.658,0,0,0-.655-.746.775.775,0,0,0-.655.383,2.055,2.055,0,0,1,.013.208v2.12h-.733V116.7a.657.657,0,0,0-.654-.746.757.757,0,0,0-.643.37v2.341h-.732Z"/>
      <path class="cls-2" d="M400.63,115.415h.733v.519a1.108,1.108,0,0,1,.967-.57,1.021,1.021,0,0,1,.953.628,1.2,1.2,0,0,1,1.076-.628,1.076,1.076,0,0,1,1.063,1.18v2.12h-.732V116.7a.658.658,0,0,0-.655-.746.777.777,0,0,0-.656.383,2.056,2.056,0,0,1,.014.208v2.12h-.733V116.7a.658.658,0,0,0-.655-.746.756.756,0,0,0-.642.37v2.341h-.733Z"/>
      <path class="cls-2" d="M406.221,114.306a.457.457,0,0,1,.914,0,.457.457,0,0,1-.914,0Zm.823,4.358h-.732v-3.249h.732Z"/>
      <path class="cls-2" d="M408.348,116h-.655v-.584h.655v-.9l.733-.155v1.05h.908V116h-.908v1.647c0,.318.123.441.454.441a1.345,1.345,0,0,0,.44-.077v.615a2.273,2.273,0,0,1-.629.091c-.654,0-1-.311-1-.908Z"/>
      <path class="cls-2" d="M388.726,126.447l-.875-3.25h.7l.571,2.3.668-2.3h.623l.668,2.3.563-2.3h.688l-.875,3.25h-.707l-.656-2.29-.654,2.29Z"/>
      <path class="cls-2" d="M392.844,122.089a.457.457,0,0,1,.914,0,.457.457,0,0,1-.914,0Zm.823,4.358h-.732V123.2h.732Z"/>
      <path class="cls-2" d="M394.972,123.781h-.655V123.2h.655V122.3l.733-.155v1.05h.908v.584h-.908v1.647c0,.318.123.441.454.441a1.345,1.345,0,0,0,.44-.077v.615a2.273,2.273,0,0,1-.629.091c-.654,0-1-.311-1-.907Z"/>
      <path class="cls-2" d="M397.254,121.81l.733-.123v2.042a1.18,1.18,0,0,1,1.031-.583,1.094,1.094,0,0,1,1.122,1.16v2.141h-.732v-1.933a.7.7,0,0,0-.714-.778.834.834,0,0,0-.707.389v2.322h-.733Z"/>
      <path class="cls-2" d="M402.928,123.2v-.577a1,1,0,0,1,1.122-1.089,1.761,1.761,0,0,1,.487.065v.622a1.491,1.491,0,0,0-.389-.052c-.337,0-.486.15-.486.468v.563h.875v.584h-.875v2.666h-.734v-2.666h-.7V123.2Z"/>
      <path class="cls-2" d="M405.063,122.089a.457.457,0,0,1,.914,0,.457.457,0,0,1-.914,0Zm.823,4.358h-.732V123.2h.732Z"/>
      <path class="cls-2" d="M407.63,124.793l-1.186-1.6h.855l.759,1.07.759-1.07h.817l-1.167,1.576,1.258,1.674h-.862l-.818-1.148-.817,1.148h-.816Z"/>
    </g>
  </g>
  <g>
    <circle class="cls-8" cx="398.75" cy="199.105" r="17.02"/>
    <g>
      <path class="cls-2" d="M390.1,195.546l.442.441a1.688,1.688,0,0,1-1.272.564,1.68,1.68,0,0,1,0-3.359,1.751,1.751,0,0,1,1.3.545l-.454.473a1.073,1.073,0,0,0-.817-.382,1.042,1.042,0,0,0,.02,2.075A1,1,0,0,0,390.1,195.546Z"/>
      <path class="cls-2" d="M392.557,193.186a1.683,1.683,0,1,1-1.635,1.679A1.622,1.622,0,0,1,392.557,193.186Zm.907,1.686a.918.918,0,1,0-1.815,0,.916.916,0,1,0,1.815,0Z"/>
      <path class="cls-2" d="M394.95,193.238h.732v.519a1.108,1.108,0,0,1,.967-.571,1.021,1.021,0,0,1,.953.629,1.2,1.2,0,0,1,1.076-.629,1.077,1.077,0,0,1,1.064,1.18v2.121h-.733v-1.965a.658.658,0,0,0-.655-.746.776.776,0,0,0-.655.382c.007.072.013.137.013.208v2.121h-.733v-1.965a.657.657,0,0,0-.654-.746.756.756,0,0,0-.643.369v2.342h-.732Z"/>
      <path class="cls-2" d="M400.63,193.238h.733v.519a1.107,1.107,0,0,1,.967-.571,1.021,1.021,0,0,1,.953.629,1.2,1.2,0,0,1,1.076-.629,1.076,1.076,0,0,1,1.063,1.18v2.121h-.732v-1.965a.658.658,0,0,0-.655-.746.778.778,0,0,0-.656.382c.007.072.014.137.014.208v2.121h-.733v-1.965a.658.658,0,0,0-.655-.746.755.755,0,0,0-.642.369v2.342h-.733Z"/>
      <path class="cls-2" d="M406.221,192.129a.457.457,0,0,1,.914,0,.457.457,0,0,1-.914,0Zm.823,4.358h-.732v-3.249h.732Z"/>
      <path class="cls-2" d="M408.348,193.821h-.655v-.583h.655v-.9l.733-.156v1.051h.908v.583h-.908v1.647c0,.318.123.441.454.441a1.345,1.345,0,0,0,.44-.077v.615a2.273,2.273,0,0,1-.629.091c-.654,0-1-.311-1-.907Z"/>
      <path class="cls-2" d="M388.726,204.269l-.875-3.249h.7l.571,2.3.668-2.3h.623l.668,2.3.563-2.3h.688l-.875,3.249h-.707l-.656-2.289-.654,2.289Z"/>
      <path class="cls-2" d="M392.844,199.911a.457.457,0,0,1,.914,0,.457.457,0,0,1-.914,0Zm.823,4.358h-.732V201.02h.732Z"/>
      <path class="cls-2" d="M394.972,201.6h-.655v-.583h.655v-.9l.733-.156v1.051h.908v.583h-.908v1.648c0,.318.123.441.454.441a1.349,1.349,0,0,0,.44-.078v.616a2.311,2.311,0,0,1-.629.091c-.654,0-1-.311-1-.908Z"/>
      <path class="cls-2" d="M397.254,199.632l.733-.123v2.042a1.18,1.18,0,0,1,1.031-.583,1.094,1.094,0,0,1,1.122,1.161v2.14h-.732v-1.933a.7.7,0,0,0-.714-.778.834.834,0,0,0-.707.389v2.322h-.733Z"/>
      <path class="cls-2" d="M402.928,201.02v-.577a1,1,0,0,1,1.122-1.09,1.761,1.761,0,0,1,.487.065v.623a1.491,1.491,0,0,0-.389-.052c-.337,0-.486.149-.486.467v.564h.875v.583h-.875v2.666h-.734V201.6h-.7v-.583Z"/>
      <path class="cls-2" d="M405.063,199.911a.457.457,0,0,1,.914,0,.457.457,0,0,1-.914,0Zm.823,4.358h-.732V201.02h.732Z"/>
      <path class="cls-2" d="M407.63,202.615l-1.186-1.595h.855l.759,1.07.759-1.07h.817l-1.167,1.575,1.258,1.674h-.862l-.818-1.148-.817,1.148h-.816Z"/>
    </g>
  </g>
  <g>
    <path class="cls-2" d="M201,196.633h1.619V197.8c.33-.859.789-1.269,1.4-1.269a1.106,1.106,0,0,1,.54.13v1.389a1.775,1.775,0,0,0-.76-.16,1.424,1.424,0,0,0-1.179.64v3.258H201Z"/>
    <path class="cls-2" d="M207.757,201.89a2.666,2.666,0,0,1-2.718-2.668,2.587,2.587,0,0,1,2.6-2.679,2.535,2.535,0,0,1,2.538,2.738v.351h-3.548a1.238,1.238,0,0,0,1.209.969,1.277,1.277,0,0,0,1.02-.43l1.069.89A3.006,3.006,0,0,1,207.757,201.89Zm-1.129-3.178h2.049a1.074,1.074,0,0,0-1.05-.91A1.024,1.024,0,0,0,206.628,198.712Z"/>
    <path class="cls-2" d="M212.808,201.79h-1.619v-7.146l1.619-.25Z"/>
    <path class="cls-2" d="M216.557,201.89a2.666,2.666,0,0,1-2.718-2.668,2.587,2.587,0,0,1,2.6-2.679,2.535,2.535,0,0,1,2.538,2.738v.351h-3.548a1.237,1.237,0,0,0,1.209.969,1.277,1.277,0,0,0,1.02-.43l1.069.89A3.006,3.006,0,0,1,216.557,201.89Zm-1.129-3.178h2.049a1.074,1.074,0,0,0-1.05-.91A1.024,1.024,0,0,0,215.428,198.712Z"/>
    <path class="cls-2" d="M219.749,200.311c0-.949.739-1.5,2.009-1.5a3.358,3.358,0,0,1,1.2.24v-.42c0-.5-.33-.749-1.019-.749a3.839,3.839,0,0,0-1.45.359l-.559-1.129a5.7,5.7,0,0,1,2.368-.56c1.43,0,2.259.71,2.259,1.939v3.3h-1.6v-.449a2.058,2.058,0,0,1-1.429.529A1.6,1.6,0,0,1,219.749,200.311Zm2.278.49a1.762,1.762,0,0,0,.93-.26v-.66a3.871,3.871,0,0,0-.89-.11c-.529,0-.829.18-.829.51S221.528,200.8,222.027,200.8Z"/>
    <path class="cls-2" d="M226.068,200.181a3.342,3.342,0,0,0,1.66.52c.46,0,.739-.16.739-.42,0-.2-.15-.31-.48-.37l-.989-.18c-1-.189-1.519-.7-1.519-1.5,0-1.059.809-1.689,2.159-1.689a4.142,4.142,0,0,1,2.1.59L229,198.162a2.926,2.926,0,0,0-1.479-.44c-.39,0-.62.13-.62.36,0,.21.13.3.53.37l.969.18c1.02.19,1.559.71,1.549,1.489.01,1.01-.949,1.769-2.218,1.769a4.212,4.212,0,0,1-2.369-.63Z"/>
    <path class="cls-2" d="M233.427,201.89a2.667,2.667,0,0,1-2.719-2.668,2.588,2.588,0,0,1,2.6-2.679,2.535,2.535,0,0,1,2.539,2.738v.351H232.3a1.238,1.238,0,0,0,1.21.969,1.275,1.275,0,0,0,1.019-.43l1.07.89A3.009,3.009,0,0,1,233.427,201.89Zm-1.13-3.178h2.049a1.073,1.073,0,0,0-1.049-.91A1.024,1.024,0,0,0,232.3,198.712Z"/>
    <path class="cls-2" d="M241.617,201.79h-1.539v-5.4l-1.38.57V195.6l1.949-.81h.97Z"/>
    <path class="cls-2" d="M244.507,200.951a.906.906,0,1,1-.9-.95A.933.933,0,0,1,244.507,200.951Z"/>
    <path class="cls-2" d="M245.488,200.691l2.959-2.929a1.3,1.3,0,0,0,.47-.929c0-.45-.44-.79-1.03-.79a2.409,2.409,0,0,0-1.769.86l-.86-1.049a3.84,3.84,0,0,1,2.679-1.15c1.489,0,2.479.81,2.479,2.029a2.444,2.444,0,0,1-.91,1.809l-2.019,1.949,3.029-.01v1.309h-5.028Z"/>
    <path class="cls-2" d="M253.227,200.951a.906.906,0,1,1-.9-.95A.933.933,0,0,1,253.227,200.951Z"/>
    <path class="cls-2" d="M255.707,199.192l-1.9-2.559h1.869l.949,1.379.96-1.379h1.8l-1.869,2.519,1.989,2.638h-1.879l-1.02-1.469-1.019,1.469H253.8Z"/>
  </g>
  <g>
    <path class="cls-9" d="M402.237,214.2a2.516,2.516,0,0,1,2.632-2.65c2.576-.022,5.153,0,7.729-.01a1.2,1.2,0,0,1,.921.366c3.668,3.679,11.349,11.344,15.011,15.03a2.336,2.336,0,0,1,.035,3.46q-3.7,3.771-7.468,7.47a2.36,2.36,0,0,1-3.509-.051c-3.651-3.637-11.287-11.286-14.937-14.923a1.328,1.328,0,0,1-.425-1.027c.015-1.267,0-2.534.006-3.8C402.232,216.777,402.214,215.489,402.237,214.2Zm4.86,1.037a1.272,1.272,0,0,0-1.2-1.185,1.175,1.175,0,1,0,.058,2.35A1.241,1.241,0,0,0,407.1,215.238Z"/>
    <g>
      <path class="cls-2" d="M410.983,223.925l-.618-.667,3.589-3.324-1.035-.453.594-.55,1.365.6.392.422Z"/>
      <path class="cls-2" d="M412.871,225.177a.585.585,0,1,1,.049-.842A.6.6,0,0,1,412.871,225.177Z"/>
      <path class="cls-2" d="M413.551,225.729l3.465.056a1.566,1.566,0,0,0,1.194-.332.952.952,0,0,0-.095-1.368,2.105,2.105,0,0,0-1.553-.621l.107-.806a2.962,2.962,0,0,1,2.045.906,1.7,1.7,0,0,1,.14,2.5,2.229,2.229,0,0,1-1.762.493l-2.684-.061,1.924,2.052-.577.533-2.687-2.9Z"/>
      <path class="cls-2" d="M417.489,230.165a.585.585,0,1,1-.794-.857.585.585,0,1,1,.794.857Z"/>
      <path class="cls-2" d="M418.605,232.157l-.618-.668,3.589-3.323-1.034-.453.593-.551,1.365.6.392.423Z"/>
    </g>
  </g>
  <rect class="cls-10" x="387.762" y="155.325" width="21.975" height="7.11"/>
  <g>
    <path class="cls-2" d="M384.015,159.2l.442.44a1.689,1.689,0,0,1-1.272.565,1.68,1.68,0,0,1,0-3.359,1.75,1.75,0,0,1,1.3.544l-.454.474a1.073,1.073,0,0,0-.817-.383,1.042,1.042,0,0,0,.02,2.075A1,1,0,0,0,384.015,159.2Z"/>
    <path class="cls-2" d="M385.085,155.5l.733-.123v2.043a1.18,1.18,0,0,1,1.031-.584A1.094,1.094,0,0,1,387.971,158v2.14h-.732V158.2a.7.7,0,0,0-.714-.778.834.834,0,0,0-.707.389v2.322h-.733Z"/>
    <path class="cls-2" d="M390.364,160.2a1.652,1.652,0,0,1-1.654-1.686,1.6,1.6,0,0,1,1.582-1.68,1.56,1.56,0,0,1,1.538,1.673v.182h-2.4a.992.992,0,0,0,.973.888,1.056,1.056,0,0,0,.772-.3l.48.447A1.884,1.884,0,0,1,390.364,160.2Zm-.921-1.959h1.693a.889.889,0,0,0-.849-.81A.874.874,0,0,0,389.443,158.243Z"/>
    <path class="cls-2" d="M392.576,156.888h.732v.707a.963.963,0,0,1,.9-.765.862.862,0,0,1,.317.064v.642a1.05,1.05,0,0,0-.4-.077.892.892,0,0,0-.811.538v2.14h-.732Z"/>
    <path class="cls-2" d="M395.125,156.888h.732v.707a.963.963,0,0,1,.895-.765.871.871,0,0,1,.318.064v.642a1.052,1.052,0,0,0-.4-.077.892.892,0,0,0-.81.538v2.14h-.732Z"/>
    <path class="cls-2" d="M398.568,160.156l-1.226-3.268h.817l.824,2.413.908-2.413h.8l-1.543,3.781a1.1,1.1,0,0,1-1.154.856,1.521,1.521,0,0,1-.37-.046v-.629a2.519,2.519,0,0,0,.285.026.516.516,0,0,0,.525-.376Z"/>
    <path class="cls-2" d="M403.392,157.99v.617h-2.256v-.617Z"/>
    <path class="cls-2" d="M404.216,156.888h.72v.467a1.225,1.225,0,0,1,1.012-.493,1.662,1.662,0,0,1-.052,3.307,1.214,1.214,0,0,1-.947-.421v1.764h-.733Zm.733.953V159.2a1,1,0,0,0,.778.356,1.04,1.04,0,0,0,0-2.075A.953.953,0,0,0,404.949,157.841Z"/>
    <path class="cls-2" d="M408.088,155.779a.457.457,0,0,1,.914,0,.457.457,0,0,1-.914,0Zm.824,4.358h-.733v-3.249h.733Z"/>
    <path class="cls-2" d="M412.134,159.2l.442.44a1.689,1.689,0,0,1-1.272.565,1.68,1.68,0,0,1,0-3.359,1.75,1.75,0,0,1,1.3.544l-.454.474a1.072,1.072,0,0,0-.816-.383,1.042,1.042,0,0,0,.019,2.075A1,1,0,0,0,412.134,159.2Z"/>
    <path class="cls-2" d="M413.206,155.5l.732-.123v2.9l1.349-1.388h.837l-1.486,1.5,1.576,1.745h-.94l-1.336-1.5v1.5h-.732Z"/>
  </g>
  <g>
    <path class="cls-2" d="M183.322,32.258a3.342,3.342,0,0,0,1.659.52c.46,0,.74-.161.74-.42,0-.2-.15-.31-.48-.37l-.989-.18c-1-.19-1.52-.7-1.52-1.5,0-1.06.81-1.689,2.16-1.689a4.142,4.142,0,0,1,2.1.59l-.74,1.029a2.913,2.913,0,0,0-1.479-.44c-.389,0-.619.13-.619.36,0,.21.13.3.53.37l.969.18c1.019.19,1.559.709,1.549,1.489.01,1.009-.95,1.769-2.219,1.769a4.211,4.211,0,0,1-2.368-.63Z"/>
    <path class="cls-2" d="M188.143,26.721l1.618-.25V29.55a1.9,1.9,0,0,1,1.63-.92,1.667,1.667,0,0,1,1.709,1.759v3.478h-1.62V30.859a.858.858,0,0,0-.859-.96,1.043,1.043,0,0,0-.86.43v3.538h-1.618Z"/>
    <path class="cls-2" d="M196.781,28.63a2.669,2.669,0,1,1-2.688,2.669A2.625,2.625,0,0,1,196.781,28.63ZM197.9,31.3a1.13,1.13,0,1,0-2.228,0,1.127,1.127,0,1,0,2.228,0Z"/>
    <path class="cls-2" d="M200.512,28.71h1.619v1.169c.33-.859.789-1.269,1.4-1.269a1.106,1.106,0,0,1,.54.13v1.389a1.773,1.773,0,0,0-.759-.16,1.426,1.426,0,0,0-1.18.64v3.258h-1.619Z"/>
    <path class="cls-2" d="M205.711,29.959h-1V28.71h1V27.281l1.62-.33V28.71h1.379v1.249h-1.379v2c0,.46.18.62.679.62a2.17,2.17,0,0,0,.66-.11v1.309a4.5,4.5,0,0,1-1.109.16c-1.22,0-1.85-.56-1.85-1.659Z"/>
    <path class="cls-2" d="M213.17,30.329v1.349h-3.678V30.329Z"/>
    <path class="cls-2" d="M215.931,33.867h-1.619V26.721l1.619-.25Z"/>
    <path class="cls-2" d="M217.092,27.01A.912.912,0,0,1,218,26.1a.922.922,0,0,1,.92.909.915.915,0,0,1-1.829,0Zm1.719,6.857h-1.619V28.71h1.619Z"/>
    <path class="cls-2" d="M219.512,28.71h1.759l1.169,3.238,1.18-3.238h1.669l-2.109,5.157H221.6Z"/>
    <path class="cls-2" d="M228.33,33.967a2.666,2.666,0,0,1-2.718-2.668,2.587,2.587,0,0,1,2.6-2.679,2.534,2.534,0,0,1,2.539,2.738v.35H227.2a1.236,1.236,0,0,0,1.209.969,1.276,1.276,0,0,0,1.02-.429l1.069.889A3,3,0,0,1,228.33,33.967ZM227.2,30.789h2.049a1.074,1.074,0,0,0-1.05-.91A1.024,1.024,0,0,0,227.2,30.789Z"/>
    <path class="cls-2" d="M235.379,33.2a1.943,1.943,0,0,1-1.519.7,2.457,2.457,0,0,1-2.278-2.618,2.486,2.486,0,0,1,2.4-2.6,1.8,1.8,0,0,1,1.379.62V26.721l1.62-.25v7.4h-1.6Zm-.979-.639a1.252,1.252,0,0,0,.959-.41V30.409a1.311,1.311,0,0,0-.959-.4,1.275,1.275,0,0,0,0,2.549Z"/>
    <path class="cls-2" d="M243.4,33.9a1.806,1.806,0,0,1-1.409-.66v.63h-1.6V26.721l1.618-.25v2.9a1.949,1.949,0,0,1,1.51-.689A2.457,2.457,0,0,1,245.8,31.3,2.486,2.486,0,0,1,243.4,33.9Zm-1.39-3.458v1.719a1.328,1.328,0,0,0,.97.41,1.275,1.275,0,0,0,0-2.549A1.251,1.251,0,0,0,242.01,30.439Z"/>
    <path class="cls-2" d="M246.832,28.71h1.618v1.169c.33-.859.79-1.269,1.4-1.269a1.1,1.1,0,0,1,.539.13v1.389a1.77,1.77,0,0,0-.759-.16,1.426,1.426,0,0,0-1.18.64v3.258h-1.618Z"/>
    <path class="cls-2" d="M250.911,32.388c0-.95.74-1.5,2.009-1.5a3.362,3.362,0,0,1,1.2.241v-.42c0-.5-.33-.75-1.02-.75a3.835,3.835,0,0,0-1.449.36l-.56-1.129a5.707,5.707,0,0,1,2.369-.56c1.429,0,2.259.71,2.259,1.939v3.3h-1.6v-.45a2.055,2.055,0,0,1-1.43.53A1.605,1.605,0,0,1,250.911,32.388Zm2.279.49a1.762,1.762,0,0,0,.93-.261v-.659a3.871,3.871,0,0,0-.89-.11c-.53,0-.83.18-.83.51S252.69,32.878,253.19,32.878Z"/>
    <path class="cls-2" d="M256.941,28.71h1.619v.84a1.9,1.9,0,0,1,1.629-.92,1.667,1.667,0,0,1,1.709,1.759v3.478h-1.619V30.859a.859.859,0,0,0-.859-.96,1.043,1.043,0,0,0-.86.43v3.538h-1.619Z"/>
    <path class="cls-2" d="M266.7,32.058l.96.95a2.715,2.715,0,0,1-2.1.959,2.669,2.669,0,0,1,0-5.337,2.79,2.79,0,0,1,2.149.949l-.99.99a1.347,1.347,0,0,0-1.1-.56,1.288,1.288,0,0,0,.04,2.559A1.246,1.246,0,0,0,266.7,32.058Z"/>
    <path class="cls-2" d="M268.511,26.721l1.619-.25V29.55a1.9,1.9,0,0,1,1.629-.92,1.667,1.667,0,0,1,1.709,1.759v3.478h-1.619V30.859a.859.859,0,0,0-.859-.96,1.043,1.043,0,0,0-.86.43v3.538h-1.619Z"/>
  </g>
  <g>
    <path class="cls-2" d="M98.132,65.693l.544.543a2.082,2.082,0,0,1-1.567.7,2.072,2.072,0,0,1,0-4.142,2.156,2.156,0,0,1,1.6.672l-.56.583a1.324,1.324,0,0,0-1.007-.472,1.285,1.285,0,0,0,.024,2.559A1.23,1.23,0,0,0,98.132,65.693Z"/>
    <path class="cls-2" d="M101.165,62.782a2.076,2.076,0,1,1-2.015,2.071A2,2,0,0,1,101.165,62.782Zm1.12,2.079a1.132,1.132,0,1,0-2.239,0,1.13,1.13,0,1,0,2.239,0Z"/>
    <path class="cls-2" d="M104.118,62.846h.9v.64a1.367,1.367,0,0,1,1.191-.7,1.258,1.258,0,0,1,1.176.776,1.477,1.477,0,0,1,1.327-.776,1.327,1.327,0,0,1,1.311,1.455v2.615h-.9V64.429a.81.81,0,0,0-.808-.919.956.956,0,0,0-.807.471c.008.089.016.168.016.256v2.615h-.9V64.429a.81.81,0,0,0-.808-.919.928.928,0,0,0-.792.456v2.886h-.9Z"/>
    <path class="cls-2" d="M111.126,62.846h.9v.64a1.366,1.366,0,0,1,1.191-.7,1.258,1.258,0,0,1,1.175.776,1.478,1.478,0,0,1,1.328-.776,1.327,1.327,0,0,1,1.311,1.455v2.615h-.9V64.429a.81.81,0,0,0-.807-.919.956.956,0,0,0-.808.471c.008.089.016.168.016.256v2.615h-.9V64.429a.81.81,0,0,0-.808-.919.925.925,0,0,0-.791.456v2.886h-.9Z"/>
    <path class="cls-2" d="M118.022,61.479a.564.564,0,0,1,1.127,0,.564.564,0,0,1-1.127,0Zm1.016,5.373h-.9V62.846h.9Z"/>
    <path class="cls-2" d="M120.646,63.566h-.808v-.72h.808v-1.1l.9-.191v1.295h1.119v.72h-1.119V65.6c0,.393.152.544.56.544a1.66,1.66,0,0,0,.544-.1v.76a2.844,2.844,0,0,1-.776.112c-.808,0-1.231-.384-1.231-1.12Z"/>
  </g>
  <g>
    <path class="cls-2" d="M317.17,65.693l.544.543a2.082,2.082,0,0,1-1.567.7,2.072,2.072,0,0,1,0-4.142,2.16,2.16,0,0,1,1.6.672l-.56.583a1.328,1.328,0,0,0-1.008-.472,1.285,1.285,0,0,0,.025,2.559A1.23,1.23,0,0,0,317.17,65.693Z"/>
    <path class="cls-2" d="M320.2,62.782a2.076,2.076,0,1,1-2.015,2.071A2,2,0,0,1,320.2,62.782Zm1.119,2.079a1.132,1.132,0,1,0-2.239,0,1.13,1.13,0,1,0,2.239,0Z"/>
    <path class="cls-2" d="M323.156,62.846h.9v.64a1.364,1.364,0,0,1,1.19-.7,1.258,1.258,0,0,1,1.176.776,1.478,1.478,0,0,1,1.327-.776,1.328,1.328,0,0,1,1.312,1.455v2.615h-.9V64.429a.811.811,0,0,0-.808-.919.956.956,0,0,0-.808.471c.008.089.016.168.016.256v2.615h-.9V64.429a.81.81,0,0,0-.808-.919.926.926,0,0,0-.791.456v2.886h-.9Z"/>
    <path class="cls-2" d="M330.165,62.846h.9v.64a1.366,1.366,0,0,1,1.191-.7,1.259,1.259,0,0,1,1.176.776,1.477,1.477,0,0,1,1.327-.776,1.327,1.327,0,0,1,1.311,1.455v2.615h-.9V64.429a.809.809,0,0,0-.807-.919.957.957,0,0,0-.808.471,2.463,2.463,0,0,1,.017.256v2.615h-.9V64.429a.81.81,0,0,0-.807-.919.928.928,0,0,0-.792.456v2.886h-.9Z"/>
    <path class="cls-2" d="M337.06,61.479a.564.564,0,0,1,1.128,0,.564.564,0,0,1-1.128,0Zm1.016,5.373h-.9V62.846h.9Z"/>
    <path class="cls-2" d="M339.684,63.566h-.808v-.72h.808v-1.1l.9-.191v1.295h1.12v.72h-1.12V65.6c0,.393.153.544.56.544a1.656,1.656,0,0,0,.544-.1v.76a2.842,2.842,0,0,1-.775.112c-.808,0-1.232-.384-1.232-1.12Z"/>
  </g>
  <g>
    <polyline class="cls-11" points="94.711 102.096 94.711 70.808 191.84 70.808 191.84 96.668"/>
    <polygon class="cls-12" points="188.101 95.574 191.84 102.05 195.58 95.574 188.101 95.574"/>
  </g>
  <g>
    <polyline class="cls-11" points="313.749 102.096 313.749 70.808 419.761 70.808 419.761 96.668"/>
    <polygon class="cls-12" points="416.022 95.574 419.761 102.05 423.5 95.574 416.022 95.574"/>
  </g>
  <g>
    <line class="cls-11" x1="397.994" y1="31.182" x2="397.994" y2="96.639"/>
    <polygon class="cls-12" points="394.255 95.544 397.994 102.02 401.734 95.544 394.255 95.544"/>
  </g>
  <g>
    <line class="cls-11" x1="173.379" y1="102.096" x2="173.379" y2="55.751"/>
    <polygon class="cls-12" points="177.118 56.845 173.379 50.369 169.64 56.845 177.118 56.845"/>
  </g>
</svg>
