<svg id="Layer_1" data-name="Layer 1" xmlns="http://www.w3.org/2000/svg" width="210mm" height="84.63mm" viewBox="0 0 595.276 239.897">
  <defs>
    <style>
      .cls-1, .cls-6 {
        fill: none;
        stroke-miterlimit: 10;
      }

      .cls-1 {
        stroke: #faaa4f;
      }

      .cls-2 {
        fill: #faaa4f;
      }

      .cls-3 {
        fill: #fcce9a;
      }

      .cls-4 {
        fill: #dcdcdc;
      }

      .cls-5 {
        fill: #080808;
      }

      .cls-6 {
        stroke: #3f9c35;
      }

      .cls-7 {
        fill: #3f9c35;
      }

      .cls-8 {
        fill: #dfeac0;
      }
    </style>
  </defs>
  <g>
    <line class="cls-1" x1="168.275" y1="60.571" x2="168.275" y2="172.517"/>
    <polygon class="cls-2" points="164.535 171.422 168.274 177.898 172.014 171.422 164.535 171.422"/>
  </g>
  <g>
    <line class="cls-1" x1="449.6" y1="65.953" x2="449.6" y2="197.086"/>
    <polygon class="cls-2" points="445.861 67.047 449.6 60.571 453.34 67.047 445.861 67.047"/>
  </g>
  <polygon class="cls-3" points="423.592 216.273 168.275 216.273 168.275 177.898 423.592 177.898 449.6 197.086 423.592 216.273"/>
  <polygon class="cls-4" points="504.506 60.628 69.298 60.628 69.298 22.253 504.506 22.253 525.978 41.441 504.506 60.628"/>
  <g>
    <path class="cls-5" d="M81.278,38.969H82.9v.819a1.771,1.771,0,0,1,1.529-.9,1.527,1.527,0,0,1,1.449.959,1.947,1.947,0,0,1,1.689-.959,1.653,1.653,0,0,1,1.62,1.809v3.428h-1.62V41.017a.771.771,0,0,0-.769-.859.885.885,0,0,0-.75.4v3.568H84.426V41.017a.771.771,0,0,0-.769-.859.927.927,0,0,0-.76.4v3.568H81.278Z"/>
    <path class="cls-5" d="M90.168,42.647c0-.95.74-1.5,2.009-1.5a3.353,3.353,0,0,1,1.2.241v-.42c0-.5-.33-.75-1.019-.75a3.835,3.835,0,0,0-1.449.36l-.56-1.129a5.707,5.707,0,0,1,2.369-.56c1.429,0,2.259.71,2.259,1.939v3.3h-1.6v-.45a2.051,2.051,0,0,1-1.429.53A1.6,1.6,0,0,1,90.168,42.647Zm2.279.49a1.756,1.756,0,0,0,.929-.261v-.659a3.856,3.856,0,0,0-.889-.11c-.53,0-.83.18-.83.51S91.947,43.137,92.447,43.137Z"/>
    <path class="cls-5" d="M96.1,37.269a.915.915,0,0,1,1.829,0,.915.915,0,0,1-1.829,0Zm1.719,6.857H96.2V38.969h1.619Z"/>
    <path class="cls-5" d="M99.078,38.969H100.7v.839a1.9,1.9,0,0,1,1.629-.919,1.667,1.667,0,0,1,1.709,1.759v3.478h-1.619V41.118a.859.859,0,0,0-.859-.96,1.043,1.043,0,0,0-.86.43v3.538H99.078Z"/>
    <path class="cls-5" d="M110.417,44.156a1.808,1.808,0,0,1-1.41-.66v.63h-1.6V36.98l1.619-.25v2.9a1.949,1.949,0,0,1,1.509-.689,2.457,2.457,0,0,1,2.279,2.618A2.487,2.487,0,0,1,110.417,44.156Zm-1.39-3.458v1.719a1.328,1.328,0,0,0,.97.41,1.275,1.275,0,0,0,0-2.549A1.25,1.25,0,0,0,109.027,40.7Z"/>
    <path class="cls-5" d="M113.848,38.969h1.619v1.169c.33-.859.79-1.269,1.4-1.269a1.106,1.106,0,0,1,.54.13v1.389a1.775,1.775,0,0,0-.76-.16,1.425,1.425,0,0,0-1.179.64v3.258h-1.619Z"/>
    <path class="cls-5" d="M117.928,42.647c0-.95.739-1.5,2.009-1.5a3.357,3.357,0,0,1,1.2.241v-.42c0-.5-.33-.75-1.019-.75a3.844,3.844,0,0,0-1.45.36l-.559-1.129a5.707,5.707,0,0,1,2.369-.56c1.429,0,2.258.71,2.258,1.939v3.3h-1.6v-.45a2.051,2.051,0,0,1-1.429.53A1.6,1.6,0,0,1,117.928,42.647Zm2.279.49a1.762,1.762,0,0,0,.929-.261v-.659a3.87,3.87,0,0,0-.889-.11c-.53,0-.83.18-.83.51S119.707,43.137,120.207,43.137Z"/>
    <path class="cls-5" d="M123.958,38.969h1.619v.839a1.9,1.9,0,0,1,1.629-.919,1.667,1.667,0,0,1,1.709,1.759v3.478H127.3V41.118a.859.859,0,0,0-.859-.96,1.042,1.042,0,0,0-.86.43v3.538h-1.619Z"/>
    <path class="cls-5" d="M133.715,42.317l.96.949a2.713,2.713,0,0,1-2.1.96,2.669,2.669,0,0,1,0-5.337,2.79,2.79,0,0,1,2.149.949l-.99.99a1.347,1.347,0,0,0-1.1-.56,1.288,1.288,0,0,0,.04,2.559A1.245,1.245,0,0,0,133.715,42.317Z"/>
    <path class="cls-5" d="M135.528,36.98l1.618-.25v3.078a1.9,1.9,0,0,1,1.63-.919,1.667,1.667,0,0,1,1.709,1.759v3.478h-1.619V41.118a.859.859,0,0,0-.86-.96,1.043,1.043,0,0,0-.86.43v3.538h-1.618Z"/>
  </g>
  <g>
    <line class="cls-6" x1="94.159" y1="60.571" x2="94.159" y2="94.637"/>
    <polygon class="cls-7" points="90.42 93.542 94.159 100.018 97.898 93.542 90.42 93.542"/>
  </g>
  <g>
    <line class="cls-6" x1="248.76" y1="65.953" x2="248.76" y2="119.263"/>
    <polygon class="cls-7" points="245.021 67.047 248.76 60.571 252.499 67.047 245.021 67.047"/>
  </g>
  <polygon class="cls-8" points="224.509 138.451 94.159 138.451 94.159 100.076 224.509 100.076 249.071 119.263 224.509 138.451"/>
  <g>
    <path class="cls-5" d="M111.443,116.876v-.68c0-1.229.73-1.9,2.059-1.9a3.694,3.694,0,0,1,.86.1v1.329a3.331,3.331,0,0,0-.62-.06c-.46,0-.68.181-.68.56v.65h1.3v1.249h-1.3v3.908h-1.619v-3.908h-1.069v-1.249Z"/>
    <path class="cls-5" d="M117.672,122.133a2.666,2.666,0,0,1-2.718-2.668,2.587,2.587,0,0,1,2.6-2.679,2.534,2.534,0,0,1,2.538,2.738v.35h-3.548a1.238,1.238,0,0,0,1.209.97,1.277,1.277,0,0,0,1.02-.43l1.069.89A3.006,3.006,0,0,1,117.672,122.133Zm-1.129-3.178h2.049a1.074,1.074,0,0,0-1.05-.91A1.024,1.024,0,0,0,116.543,118.955Z"/>
    <path class="cls-5" d="M120.864,120.554c0-.95.74-1.5,2.009-1.5a3.354,3.354,0,0,1,1.2.24v-.42c0-.5-.33-.75-1.019-.75a3.835,3.835,0,0,0-1.449.36l-.56-1.129a5.707,5.707,0,0,1,2.369-.56c1.429,0,2.258.71,2.258,1.939v3.3h-1.6v-.45a2.051,2.051,0,0,1-1.429.53A1.6,1.6,0,0,1,120.864,120.554Zm2.279.49a1.77,1.77,0,0,0,.929-.26v-.66a3.87,3.87,0,0,0-.889-.11c-.53,0-.83.18-.83.51S122.643,121.044,123.143,121.044Z"/>
    <path class="cls-5" d="M127.423,118.125h-1v-1.249h1v-1.429l1.619-.33v1.759h1.38v1.249h-1.38v2c0,.46.181.62.68.62a2.17,2.17,0,0,0,.66-.11v1.309a4.5,4.5,0,0,1-1.11.16c-1.219,0-1.849-.56-1.849-1.659Z"/>
    <path class="cls-5" d="M132.9,119.884a.859.859,0,0,0,.859.96,1.043,1.043,0,0,0,.86-.43v-3.538h1.619v5.157h-1.619v-.839a1.905,1.905,0,0,1-1.629.919,1.666,1.666,0,0,1-1.709-1.759v-3.478H132.9Z"/>
    <path class="cls-5" d="M137.5,116.876h1.619v1.169c.33-.859.79-1.269,1.4-1.269a1.106,1.106,0,0,1,.54.13V118.3a1.775,1.775,0,0,0-.76-.16,1.424,1.424,0,0,0-1.179.64v3.258H137.5Z"/>
    <path class="cls-5" d="M144.262,122.133a2.666,2.666,0,0,1-2.718-2.668,2.587,2.587,0,0,1,2.6-2.679,2.534,2.534,0,0,1,2.538,2.738v.35h-3.548a1.237,1.237,0,0,0,1.209.97,1.277,1.277,0,0,0,1.02-.43l1.069.89A3.006,3.006,0,0,1,144.262,122.133Zm-1.129-3.178h2.049a1.074,1.074,0,0,0-1.05-.91A1.024,1.024,0,0,0,143.133,118.955Z"/>
    <path class="cls-5" d="M152.852,122.063a1.806,1.806,0,0,1-1.409-.66v.63h-1.6v-7.146l1.618-.25v2.9a1.95,1.95,0,0,1,1.51-.69,2.457,2.457,0,0,1,2.278,2.619A2.486,2.486,0,0,1,152.852,122.063Zm-1.39-3.458v1.719a1.328,1.328,0,0,0,.97.41,1.275,1.275,0,0,0,0-2.549A1.251,1.251,0,0,0,151.462,118.605Z"/>
    <path class="cls-5" d="M156.284,116.876H157.9v1.169c.33-.859.79-1.269,1.4-1.269a1.1,1.1,0,0,1,.539.13V118.3a1.767,1.767,0,0,0-.759-.16,1.427,1.427,0,0,0-1.18.64v3.258h-1.618Z"/>
    <path class="cls-5" d="M160.363,120.554c0-.95.74-1.5,2.01-1.5a3.358,3.358,0,0,1,1.2.24v-.42c0-.5-.33-.75-1.02-.75a3.844,3.844,0,0,0-1.449.36l-.56-1.129a5.707,5.707,0,0,1,2.369-.56c1.429,0,2.259.71,2.259,1.939v3.3h-1.6v-.45a2.054,2.054,0,0,1-1.429.53A1.6,1.6,0,0,1,160.363,120.554Zm2.279.49a1.771,1.771,0,0,0,.93-.26v-.66a3.871,3.871,0,0,0-.89-.11c-.53,0-.829.18-.829.51S162.143,121.044,162.642,121.044Z"/>
    <path class="cls-5" d="M166.394,116.876h1.618v.84a1.9,1.9,0,0,1,1.63-.92,1.667,1.667,0,0,1,1.709,1.759v3.478h-1.62v-3.008a.858.858,0,0,0-.859-.96,1.043,1.043,0,0,0-.86.43v3.538h-1.618Z"/>
    <path class="cls-5" d="M176.151,120.224l.959.95a2.713,2.713,0,0,1-2.1.959,2.669,2.669,0,1,1,0-5.337,2.8,2.8,0,0,1,2.149.949l-.99.99a1.349,1.349,0,0,0-1.1-.56,1.288,1.288,0,0,0,.04,2.559A1.246,1.246,0,0,0,176.151,120.224Z"/>
    <path class="cls-5" d="M177.963,114.887l1.619-.25v3.079a1.9,1.9,0,0,1,1.629-.92,1.667,1.667,0,0,1,1.709,1.759v3.478H181.3v-3.008a.859.859,0,0,0-.859-.96,1.043,1.043,0,0,0-.86.43v3.538h-1.619Z"/>
  </g>
  <g>
    <path class="cls-5" d="M181.482,194.613v-.68c0-1.229.73-1.9,2.06-1.9a3.691,3.691,0,0,1,.859.1v1.329a3.247,3.247,0,0,0-.62-.06c-.46,0-.679.18-.679.56v.649h1.3v1.25h-1.3v3.907h-1.62v-3.907h-1.069v-1.25Z"/>
    <path class="cls-5" d="M187.711,199.87a2.666,2.666,0,0,1-2.718-2.668,2.587,2.587,0,0,1,2.6-2.679,2.535,2.535,0,0,1,2.538,2.739v.35h-3.548a1.238,1.238,0,0,0,1.21.969,1.276,1.276,0,0,0,1.019-.43l1.069.89A3.006,3.006,0,0,1,187.711,199.87Zm-1.129-3.178h2.049a1.073,1.073,0,0,0-1.049-.909A1.024,1.024,0,0,0,186.582,196.692Z"/>
    <path class="cls-5" d="M190.9,198.291c0-.949.74-1.5,2.009-1.5a3.354,3.354,0,0,1,1.2.24v-.42c0-.5-.33-.749-1.019-.749a3.835,3.835,0,0,0-1.449.36l-.56-1.13a5.707,5.707,0,0,1,2.369-.56c1.429,0,2.258.71,2.258,1.939v3.3h-1.6v-.449a2.05,2.05,0,0,1-1.429.529A1.6,1.6,0,0,1,190.9,198.291Zm2.279.49a1.758,1.758,0,0,0,.929-.26v-.66a3.863,3.863,0,0,0-.889-.11c-.53,0-.83.181-.83.51S192.682,198.781,193.182,198.781Z"/>
    <path class="cls-5" d="M197.462,195.863h-1v-1.25h1v-1.429l1.62-.33v1.759h1.379v1.25h-1.379v2c0,.46.18.62.679.62a2.17,2.17,0,0,0,.66-.11v1.31a4.547,4.547,0,0,1-1.109.159c-1.22,0-1.85-.559-1.85-1.659Z"/>
    <path class="cls-5" d="M202.942,197.621a.859.859,0,0,0,.859.96,1.043,1.043,0,0,0,.86-.43v-3.538h1.619v5.157h-1.619v-.839a1.9,1.9,0,0,1-1.629.919,1.666,1.666,0,0,1-1.709-1.759v-3.478h1.619Z"/>
    <path class="cls-5" d="M207.543,194.613h1.619v1.17c.33-.86.79-1.27,1.4-1.27a1.106,1.106,0,0,1,.54.13v1.39a1.76,1.76,0,0,0-.76-.161,1.424,1.424,0,0,0-1.179.64v3.258h-1.619Z"/>
    <path class="cls-5" d="M214.3,199.87a2.666,2.666,0,0,1-2.718-2.668,2.587,2.587,0,0,1,2.6-2.679,2.535,2.535,0,0,1,2.538,2.739v.35h-3.548a1.238,1.238,0,0,0,1.209.969,1.277,1.277,0,0,0,1.02-.43l1.069.89A3.006,3.006,0,0,1,214.3,199.87Zm-1.129-3.178h2.049a1.074,1.074,0,0,0-1.05-.909A1.023,1.023,0,0,0,213.172,196.692Z"/>
    <path class="cls-5" d="M222.891,199.8a1.807,1.807,0,0,1-1.409-.66v.63h-1.6v-7.146l1.618-.25v2.9a1.95,1.95,0,0,1,1.51-.69,2.458,2.458,0,0,1,2.279,2.619A2.486,2.486,0,0,1,222.891,199.8Zm-1.39-3.458v1.719a1.328,1.328,0,0,0,.97.41,1.275,1.275,0,0,0,0-2.548A1.251,1.251,0,0,0,221.5,196.342Z"/>
    <path class="cls-5" d="M226.323,194.613h1.618v1.17c.33-.86.79-1.27,1.4-1.27a1.1,1.1,0,0,1,.539.13v1.39a1.752,1.752,0,0,0-.759-.161,1.427,1.427,0,0,0-1.18.64v3.258h-1.618Z"/>
    <path class="cls-5" d="M230.4,198.291c0-.949.74-1.5,2.01-1.5a3.358,3.358,0,0,1,1.2.24v-.42c0-.5-.33-.749-1.02-.749a3.844,3.844,0,0,0-1.449.36l-.559-1.13a5.7,5.7,0,0,1,2.368-.56c1.429,0,2.259.71,2.259,1.939v3.3h-1.6v-.449a2.053,2.053,0,0,1-1.429.529A1.6,1.6,0,0,1,230.4,198.291Zm2.279.49a1.762,1.762,0,0,0,.93-.26v-.66a3.871,3.871,0,0,0-.89-.11c-.53,0-.829.181-.829.51S232.182,198.781,232.681,198.781Z"/>
    <path class="cls-5" d="M236.433,194.613h1.618v.84a1.9,1.9,0,0,1,1.63-.92,1.667,1.667,0,0,1,1.709,1.759v3.478h-1.619v-3.008a.858.858,0,0,0-.86-.959,1.042,1.042,0,0,0-.86.429v3.538h-1.618Z"/>
    <path class="cls-5" d="M246.19,197.961l.959.95a2.71,2.71,0,0,1-2.1.959,2.669,2.669,0,1,1,0-5.337,2.792,2.792,0,0,1,2.149.95l-.99.989a1.349,1.349,0,0,0-1.1-.56,1.288,1.288,0,0,0,.04,2.559A1.246,1.246,0,0,0,246.19,197.961Z"/>
    <path class="cls-5" d="M248,192.624l1.619-.25v3.079a1.9,1.9,0,0,1,1.629-.92,1.667,1.667,0,0,1,1.709,1.759v3.478H251.34v-3.008a.858.858,0,0,0-.859-.959,1.042,1.042,0,0,0-.86.429v3.538H248Z"/>
  </g>
</svg>
